M48
METRIC,TZ
T01C0.7620
T02C0.6350
T03C1.0000
T04C1.0160
T05C1.2700
%
T01
X+5000Y+25000
X+5000Y+22460
X+5000Y+19920
X+5000Y+17380
X+5000Y+14840
X+5000Y+12300
X+5000Y+9760
X+5000Y+7220
X+5000Y+4680
X+5000Y+2140
X+5000Y-5480
X+5000Y-8020
X+5000Y-10560
X+5000Y-13100
X+5000Y-15640
X+5000Y-18180
X+5000Y-20720
X+5000Y-23260
X-10240Y-23260
X-10240Y-20720
X-10240Y-18180
X-10240Y-15640
X-10240Y-13100
X-10240Y-10560
X-10240Y-8020
X-10240Y-5480
X-10240Y-2940
X-10240Y-400
X-10240Y+2140
X-10240Y+4680
X-10240Y+7220
X-10240Y+9760
X-10240Y+12300
X-10240Y+14840
X-10240Y+17380
X-10240Y+19920
X-10240Y+22460
X-10240Y+25000
X+18770Y+22500
X+18770Y+12340
X+25000Y+12500
X+25000Y+22660
X-12500Y+5000
X-22660Y+5000
X-12500Y+15000
X-22660Y+15000
X-10435Y+32065
X-275Y+32065
X+15000Y+32500
X+7380Y+32500
X+22820Y+25000
X+12660Y+25000
X+12500Y-22500
X+17580Y-22500
X+12500Y-12500
X+12500Y-15040
X+20000Y-12500
X+20000Y-15040
X-27500Y+17500
X-27500Y+27660
X+22500Y+5000
X+19960Y+5000
X+22500Y-5000
X+19960Y-5000
X+22500Y+37500
X+22500Y+27340
T02
X+5000Y-400
X+5000Y-2940
T03
X-17500Y-2500
X-17500Y-5040
X-17500Y-7580
X-17500Y-10120
X-17500Y-12660
X-17500Y-15200
X-17500Y-17740
X-17500Y-20280
X-17500Y-22820
X-17500Y-25360
X+12500Y+20000
X+12500Y+17460
X+12500Y+14920
X+12500Y+12380
X+12500Y+9840
X+12500Y+7300
X-20000Y+32500
X-20000Y+29960
X-20000Y+27420
X-20000Y+24880
X-20000Y+22340
X-20000Y+19800
T04
X-25000Y+11310
X-25000Y+8770
X+16090Y+28590
X-30000Y+10000
X-30000Y+12540
T05
X+13550Y+28590
M30
