G04 PROTEUS RS274X GERBER FILE*
%FSLAX45Y45*%
%MOMM*%
G01*
%ADD17C,0.203200*%
%ADD18C,0.127000*%
%ADD16C,0.063500*%
D17*
X+544901Y+2544901D02*
X+455099Y+2455099D01*
X+544901Y+2455099D02*
X+455099Y+2544901D01*
X+544901Y+2290901D02*
X+455099Y+2201099D01*
X+544901Y+2201099D02*
X+455099Y+2290901D01*
X+544901Y+2036901D02*
X+455099Y+1947099D01*
X+544901Y+1947099D02*
X+455099Y+2036901D01*
X+544901Y+1782901D02*
X+455099Y+1693099D01*
X+544901Y+1693099D02*
X+455099Y+1782901D01*
X+544901Y+1528901D02*
X+455099Y+1439099D01*
X+544901Y+1439099D02*
X+455099Y+1528901D01*
X+544901Y+1274901D02*
X+455099Y+1185099D01*
X+544901Y+1185099D02*
X+455099Y+1274901D01*
X+544901Y+1020901D02*
X+455099Y+931099D01*
X+544901Y+931099D02*
X+455099Y+1020901D01*
X+544901Y+766901D02*
X+455099Y+677099D01*
X+544901Y+677099D02*
X+455099Y+766901D01*
X+544901Y+512901D02*
X+455099Y+423099D01*
X+544901Y+423099D02*
X+455099Y+512901D01*
X+544901Y+258901D02*
X+455099Y+169099D01*
X+544901Y+169099D02*
X+455099Y+258901D01*
X+500000Y+23500D02*
X+500000Y-103500D01*
X+563500Y-40000D02*
X+436500Y-40000D01*
X+500000Y-230500D02*
X+500000Y-357500D01*
X+563500Y-294000D02*
X+436500Y-294000D01*
X+544901Y-503099D02*
X+455099Y-592901D01*
X+544901Y-592901D02*
X+455099Y-503099D01*
X+544901Y-757099D02*
X+455099Y-846901D01*
X+544901Y-846901D02*
X+455099Y-757099D01*
X+544901Y-1011099D02*
X+455099Y-1100901D01*
X+544901Y-1100901D02*
X+455099Y-1011099D01*
X+544901Y-1265099D02*
X+455099Y-1354901D01*
X+544901Y-1354901D02*
X+455099Y-1265099D01*
X+544901Y-1519099D02*
X+455099Y-1608901D01*
X+544901Y-1608901D02*
X+455099Y-1519099D01*
X+544901Y-1773099D02*
X+455099Y-1862901D01*
X+544901Y-1862901D02*
X+455099Y-1773099D01*
X+544901Y-2027099D02*
X+455099Y-2116901D01*
X+544901Y-2116901D02*
X+455099Y-2027099D01*
X+544901Y-2281099D02*
X+455099Y-2370901D01*
X+544901Y-2370901D02*
X+455099Y-2281099D01*
X-979099Y-2281099D02*
X-1068901Y-2370901D01*
X-979099Y-2370901D02*
X-1068901Y-2281099D01*
X-979099Y-2027099D02*
X-1068901Y-2116901D01*
X-979099Y-2116901D02*
X-1068901Y-2027099D01*
X-979099Y-1773099D02*
X-1068901Y-1862901D01*
X-979099Y-1862901D02*
X-1068901Y-1773099D01*
X-979099Y-1519099D02*
X-1068901Y-1608901D01*
X-979099Y-1608901D02*
X-1068901Y-1519099D01*
X-979099Y-1265099D02*
X-1068901Y-1354901D01*
X-979099Y-1354901D02*
X-1068901Y-1265099D01*
X-979099Y-1011099D02*
X-1068901Y-1100901D01*
X-979099Y-1100901D02*
X-1068901Y-1011099D01*
X-979099Y-757099D02*
X-1068901Y-846901D01*
X-979099Y-846901D02*
X-1068901Y-757099D01*
X-979099Y-503099D02*
X-1068901Y-592901D01*
X-979099Y-592901D02*
X-1068901Y-503099D01*
X-979099Y-249099D02*
X-1068901Y-338901D01*
X-979099Y-338901D02*
X-1068901Y-249099D01*
X-979099Y+4901D02*
X-1068901Y-84901D01*
X-979099Y-84901D02*
X-1068901Y+4901D01*
X-979099Y+258901D02*
X-1068901Y+169099D01*
X-979099Y+169099D02*
X-1068901Y+258901D01*
X-979099Y+512901D02*
X-1068901Y+423099D01*
X-979099Y+423099D02*
X-1068901Y+512901D01*
X-979099Y+766901D02*
X-1068901Y+677099D01*
X-979099Y+677099D02*
X-1068901Y+766901D01*
X-979099Y+1020901D02*
X-1068901Y+931099D01*
X-979099Y+931099D02*
X-1068901Y+1020901D01*
X-979099Y+1274901D02*
X-1068901Y+1185099D01*
X-979099Y+1185099D02*
X-1068901Y+1274901D01*
X-979099Y+1528901D02*
X-1068901Y+1439099D01*
X-979099Y+1439099D02*
X-1068901Y+1528901D01*
X-979099Y+1782901D02*
X-1068901Y+1693099D01*
X-979099Y+1693099D02*
X-1068901Y+1782901D01*
X-979099Y+2036901D02*
X-1068901Y+1947099D01*
X-979099Y+1947099D02*
X-1068901Y+2036901D01*
X-979099Y+2290901D02*
X-1068901Y+2201099D01*
X-979099Y+2201099D02*
X-1068901Y+2290901D01*
X-979099Y+2544901D02*
X-1068901Y+2455099D01*
X-979099Y+2455099D02*
X-1068901Y+2544901D01*
X-1686500Y-250000D02*
X-1686725Y-244665D01*
X-1688551Y-233993D01*
X-1692376Y-223321D01*
X-1698647Y-212649D01*
X-1708220Y-202181D01*
X-1718892Y-194642D01*
X-1729564Y-189878D01*
X-1740236Y-187255D01*
X-1750000Y-186500D01*
X-1813500Y-250000D02*
X-1813275Y-244665D01*
X-1811449Y-233993D01*
X-1807624Y-223321D01*
X-1801353Y-212649D01*
X-1791780Y-202181D01*
X-1781108Y-194642D01*
X-1770436Y-189878D01*
X-1759764Y-187255D01*
X-1750000Y-186500D01*
X-1813500Y-250000D02*
X-1813275Y-255335D01*
X-1811449Y-266007D01*
X-1807624Y-276679D01*
X-1801353Y-287351D01*
X-1791780Y-297819D01*
X-1781108Y-305358D01*
X-1770436Y-310122D01*
X-1759764Y-312745D01*
X-1750000Y-313500D01*
X-1686500Y-250000D02*
X-1686725Y-255335D01*
X-1688551Y-266007D01*
X-1692376Y-276679D01*
X-1698647Y-287351D01*
X-1708220Y-297819D01*
X-1718892Y-305358D01*
X-1729564Y-310122D01*
X-1740236Y-312745D01*
X-1750000Y-313500D01*
X-1705099Y-205099D02*
X-1794901Y-294901D01*
X-1705099Y-294901D02*
X-1794901Y-205099D01*
X-1686500Y-504000D02*
X-1686725Y-498665D01*
X-1688551Y-487993D01*
X-1692376Y-477321D01*
X-1698647Y-466649D01*
X-1708220Y-456181D01*
X-1718892Y-448642D01*
X-1729564Y-443878D01*
X-1740236Y-441255D01*
X-1750000Y-440500D01*
X-1813500Y-504000D02*
X-1813275Y-498665D01*
X-1811449Y-487993D01*
X-1807624Y-477321D01*
X-1801353Y-466649D01*
X-1791780Y-456181D01*
X-1781108Y-448642D01*
X-1770436Y-443878D01*
X-1759764Y-441255D01*
X-1750000Y-440500D01*
X-1813500Y-504000D02*
X-1813275Y-509335D01*
X-1811449Y-520007D01*
X-1807624Y-530679D01*
X-1801353Y-541351D01*
X-1791780Y-551819D01*
X-1781108Y-559358D01*
X-1770436Y-564122D01*
X-1759764Y-566745D01*
X-1750000Y-567500D01*
X-1686500Y-504000D02*
X-1686725Y-509335D01*
X-1688551Y-520007D01*
X-1692376Y-530679D01*
X-1698647Y-541351D01*
X-1708220Y-551819D01*
X-1718892Y-559358D01*
X-1729564Y-564122D01*
X-1740236Y-566745D01*
X-1750000Y-567500D01*
X-1705099Y-459099D02*
X-1794901Y-548901D01*
X-1705099Y-548901D02*
X-1794901Y-459099D01*
X-1686500Y-758000D02*
X-1686725Y-752665D01*
X-1688551Y-741993D01*
X-1692376Y-731321D01*
X-1698647Y-720649D01*
X-1708220Y-710181D01*
X-1718892Y-702642D01*
X-1729564Y-697878D01*
X-1740236Y-695255D01*
X-1750000Y-694500D01*
X-1813500Y-758000D02*
X-1813275Y-752665D01*
X-1811449Y-741993D01*
X-1807624Y-731321D01*
X-1801353Y-720649D01*
X-1791780Y-710181D01*
X-1781108Y-702642D01*
X-1770436Y-697878D01*
X-1759764Y-695255D01*
X-1750000Y-694500D01*
X-1813500Y-758000D02*
X-1813275Y-763335D01*
X-1811449Y-774007D01*
X-1807624Y-784679D01*
X-1801353Y-795351D01*
X-1791780Y-805819D01*
X-1781108Y-813358D01*
X-1770436Y-818122D01*
X-1759764Y-820745D01*
X-1750000Y-821500D01*
X-1686500Y-758000D02*
X-1686725Y-763335D01*
X-1688551Y-774007D01*
X-1692376Y-784679D01*
X-1698647Y-795351D01*
X-1708220Y-805819D01*
X-1718892Y-813358D01*
X-1729564Y-818122D01*
X-1740236Y-820745D01*
X-1750000Y-821500D01*
X-1705099Y-713099D02*
X-1794901Y-802901D01*
X-1705099Y-802901D02*
X-1794901Y-713099D01*
X-1686500Y-1012000D02*
X-1686725Y-1006665D01*
X-1688551Y-995993D01*
X-1692376Y-985321D01*
X-1698647Y-974649D01*
X-1708220Y-964181D01*
X-1718892Y-956642D01*
X-1729564Y-951878D01*
X-1740236Y-949255D01*
X-1750000Y-948500D01*
X-1813500Y-1012000D02*
X-1813275Y-1006665D01*
X-1811449Y-995993D01*
X-1807624Y-985321D01*
X-1801353Y-974649D01*
X-1791780Y-964181D01*
X-1781108Y-956642D01*
X-1770436Y-951878D01*
X-1759764Y-949255D01*
X-1750000Y-948500D01*
X-1813500Y-1012000D02*
X-1813275Y-1017335D01*
X-1811449Y-1028007D01*
X-1807624Y-1038679D01*
X-1801353Y-1049351D01*
X-1791780Y-1059819D01*
X-1781108Y-1067358D01*
X-1770436Y-1072122D01*
X-1759764Y-1074745D01*
X-1750000Y-1075500D01*
X-1686500Y-1012000D02*
X-1686725Y-1017335D01*
X-1688551Y-1028007D01*
X-1692376Y-1038679D01*
X-1698647Y-1049351D01*
X-1708220Y-1059819D01*
X-1718892Y-1067358D01*
X-1729564Y-1072122D01*
X-1740236Y-1074745D01*
X-1750000Y-1075500D01*
X-1705099Y-967099D02*
X-1794901Y-1056901D01*
X-1705099Y-1056901D02*
X-1794901Y-967099D01*
X-1686500Y-1266000D02*
X-1686725Y-1260665D01*
X-1688551Y-1249993D01*
X-1692376Y-1239321D01*
X-1698647Y-1228649D01*
X-1708220Y-1218181D01*
X-1718892Y-1210642D01*
X-1729564Y-1205878D01*
X-1740236Y-1203255D01*
X-1750000Y-1202500D01*
X-1813500Y-1266000D02*
X-1813275Y-1260665D01*
X-1811449Y-1249993D01*
X-1807624Y-1239321D01*
X-1801353Y-1228649D01*
X-1791780Y-1218181D01*
X-1781108Y-1210642D01*
X-1770436Y-1205878D01*
X-1759764Y-1203255D01*
X-1750000Y-1202500D01*
X-1813500Y-1266000D02*
X-1813275Y-1271335D01*
X-1811449Y-1282007D01*
X-1807624Y-1292679D01*
X-1801353Y-1303351D01*
X-1791780Y-1313819D01*
X-1781108Y-1321358D01*
X-1770436Y-1326122D01*
X-1759764Y-1328745D01*
X-1750000Y-1329500D01*
X-1686500Y-1266000D02*
X-1686725Y-1271335D01*
X-1688551Y-1282007D01*
X-1692376Y-1292679D01*
X-1698647Y-1303351D01*
X-1708220Y-1313819D01*
X-1718892Y-1321358D01*
X-1729564Y-1326122D01*
X-1740236Y-1328745D01*
X-1750000Y-1329500D01*
X-1705099Y-1221099D02*
X-1794901Y-1310901D01*
X-1705099Y-1310901D02*
X-1794901Y-1221099D01*
X-1686500Y-1520000D02*
X-1686725Y-1514665D01*
X-1688551Y-1503993D01*
X-1692376Y-1493321D01*
X-1698647Y-1482649D01*
X-1708220Y-1472181D01*
X-1718892Y-1464642D01*
X-1729564Y-1459878D01*
X-1740236Y-1457255D01*
X-1750000Y-1456500D01*
X-1813500Y-1520000D02*
X-1813275Y-1514665D01*
X-1811449Y-1503993D01*
X-1807624Y-1493321D01*
X-1801353Y-1482649D01*
X-1791780Y-1472181D01*
X-1781108Y-1464642D01*
X-1770436Y-1459878D01*
X-1759764Y-1457255D01*
X-1750000Y-1456500D01*
X-1813500Y-1520000D02*
X-1813275Y-1525335D01*
X-1811449Y-1536007D01*
X-1807624Y-1546679D01*
X-1801353Y-1557351D01*
X-1791780Y-1567819D01*
X-1781108Y-1575358D01*
X-1770436Y-1580122D01*
X-1759764Y-1582745D01*
X-1750000Y-1583500D01*
X-1686500Y-1520000D02*
X-1686725Y-1525335D01*
X-1688551Y-1536007D01*
X-1692376Y-1546679D01*
X-1698647Y-1557351D01*
X-1708220Y-1567819D01*
X-1718892Y-1575358D01*
X-1729564Y-1580122D01*
X-1740236Y-1582745D01*
X-1750000Y-1583500D01*
X-1705099Y-1475099D02*
X-1794901Y-1564901D01*
X-1705099Y-1564901D02*
X-1794901Y-1475099D01*
X-1686500Y-1774000D02*
X-1686725Y-1768665D01*
X-1688551Y-1757993D01*
X-1692376Y-1747321D01*
X-1698647Y-1736649D01*
X-1708220Y-1726181D01*
X-1718892Y-1718642D01*
X-1729564Y-1713878D01*
X-1740236Y-1711255D01*
X-1750000Y-1710500D01*
X-1813500Y-1774000D02*
X-1813275Y-1768665D01*
X-1811449Y-1757993D01*
X-1807624Y-1747321D01*
X-1801353Y-1736649D01*
X-1791780Y-1726181D01*
X-1781108Y-1718642D01*
X-1770436Y-1713878D01*
X-1759764Y-1711255D01*
X-1750000Y-1710500D01*
X-1813500Y-1774000D02*
X-1813275Y-1779335D01*
X-1811449Y-1790007D01*
X-1807624Y-1800679D01*
X-1801353Y-1811351D01*
X-1791780Y-1821819D01*
X-1781108Y-1829358D01*
X-1770436Y-1834122D01*
X-1759764Y-1836745D01*
X-1750000Y-1837500D01*
X-1686500Y-1774000D02*
X-1686725Y-1779335D01*
X-1688551Y-1790007D01*
X-1692376Y-1800679D01*
X-1698647Y-1811351D01*
X-1708220Y-1821819D01*
X-1718892Y-1829358D01*
X-1729564Y-1834122D01*
X-1740236Y-1836745D01*
X-1750000Y-1837500D01*
X-1705099Y-1729099D02*
X-1794901Y-1818901D01*
X-1705099Y-1818901D02*
X-1794901Y-1729099D01*
X-1686500Y-2028000D02*
X-1686725Y-2022665D01*
X-1688551Y-2011993D01*
X-1692376Y-2001321D01*
X-1698647Y-1990649D01*
X-1708220Y-1980181D01*
X-1718892Y-1972642D01*
X-1729564Y-1967878D01*
X-1740236Y-1965255D01*
X-1750000Y-1964500D01*
X-1813500Y-2028000D02*
X-1813275Y-2022665D01*
X-1811449Y-2011993D01*
X-1807624Y-2001321D01*
X-1801353Y-1990649D01*
X-1791780Y-1980181D01*
X-1781108Y-1972642D01*
X-1770436Y-1967878D01*
X-1759764Y-1965255D01*
X-1750000Y-1964500D01*
X-1813500Y-2028000D02*
X-1813275Y-2033335D01*
X-1811449Y-2044007D01*
X-1807624Y-2054679D01*
X-1801353Y-2065351D01*
X-1791780Y-2075819D01*
X-1781108Y-2083358D01*
X-1770436Y-2088122D01*
X-1759764Y-2090745D01*
X-1750000Y-2091500D01*
X-1686500Y-2028000D02*
X-1686725Y-2033335D01*
X-1688551Y-2044007D01*
X-1692376Y-2054679D01*
X-1698647Y-2065351D01*
X-1708220Y-2075819D01*
X-1718892Y-2083358D01*
X-1729564Y-2088122D01*
X-1740236Y-2090745D01*
X-1750000Y-2091500D01*
X-1705099Y-1983099D02*
X-1794901Y-2072901D01*
X-1705099Y-2072901D02*
X-1794901Y-1983099D01*
X-1686500Y-2282000D02*
X-1686725Y-2276665D01*
X-1688551Y-2265993D01*
X-1692376Y-2255321D01*
X-1698647Y-2244649D01*
X-1708220Y-2234181D01*
X-1718892Y-2226642D01*
X-1729564Y-2221878D01*
X-1740236Y-2219255D01*
X-1750000Y-2218500D01*
X-1813500Y-2282000D02*
X-1813275Y-2276665D01*
X-1811449Y-2265993D01*
X-1807624Y-2255321D01*
X-1801353Y-2244649D01*
X-1791780Y-2234181D01*
X-1781108Y-2226642D01*
X-1770436Y-2221878D01*
X-1759764Y-2219255D01*
X-1750000Y-2218500D01*
X-1813500Y-2282000D02*
X-1813275Y-2287335D01*
X-1811449Y-2298007D01*
X-1807624Y-2308679D01*
X-1801353Y-2319351D01*
X-1791780Y-2329819D01*
X-1781108Y-2337358D01*
X-1770436Y-2342122D01*
X-1759764Y-2344745D01*
X-1750000Y-2345500D01*
X-1686500Y-2282000D02*
X-1686725Y-2287335D01*
X-1688551Y-2298007D01*
X-1692376Y-2308679D01*
X-1698647Y-2319351D01*
X-1708220Y-2329819D01*
X-1718892Y-2337358D01*
X-1729564Y-2342122D01*
X-1740236Y-2344745D01*
X-1750000Y-2345500D01*
X-1705099Y-2237099D02*
X-1794901Y-2326901D01*
X-1705099Y-2326901D02*
X-1794901Y-2237099D01*
X-1686500Y-2536000D02*
X-1686725Y-2530665D01*
X-1688551Y-2519993D01*
X-1692376Y-2509321D01*
X-1698647Y-2498649D01*
X-1708220Y-2488181D01*
X-1718892Y-2480642D01*
X-1729564Y-2475878D01*
X-1740236Y-2473255D01*
X-1750000Y-2472500D01*
X-1813500Y-2536000D02*
X-1813275Y-2530665D01*
X-1811449Y-2519993D01*
X-1807624Y-2509321D01*
X-1801353Y-2498649D01*
X-1791780Y-2488181D01*
X-1781108Y-2480642D01*
X-1770436Y-2475878D01*
X-1759764Y-2473255D01*
X-1750000Y-2472500D01*
X-1813500Y-2536000D02*
X-1813275Y-2541335D01*
X-1811449Y-2552007D01*
X-1807624Y-2562679D01*
X-1801353Y-2573351D01*
X-1791780Y-2583819D01*
X-1781108Y-2591358D01*
X-1770436Y-2596122D01*
X-1759764Y-2598745D01*
X-1750000Y-2599500D01*
X-1686500Y-2536000D02*
X-1686725Y-2541335D01*
X-1688551Y-2552007D01*
X-1692376Y-2562679D01*
X-1698647Y-2573351D01*
X-1708220Y-2583819D01*
X-1718892Y-2591358D01*
X-1729564Y-2596122D01*
X-1740236Y-2598745D01*
X-1750000Y-2599500D01*
X-1705099Y-2491099D02*
X-1794901Y-2580901D01*
X-1705099Y-2580901D02*
X-1794901Y-2491099D01*
X+1313500Y+2000000D02*
X+1313275Y+2005335D01*
X+1311449Y+2016007D01*
X+1307624Y+2026679D01*
X+1301353Y+2037351D01*
X+1291780Y+2047819D01*
X+1281108Y+2055358D01*
X+1270436Y+2060122D01*
X+1259764Y+2062745D01*
X+1250000Y+2063500D01*
X+1186500Y+2000000D02*
X+1186725Y+2005335D01*
X+1188551Y+2016007D01*
X+1192376Y+2026679D01*
X+1198647Y+2037351D01*
X+1208220Y+2047819D01*
X+1218892Y+2055358D01*
X+1229564Y+2060122D01*
X+1240236Y+2062745D01*
X+1250000Y+2063500D01*
X+1186500Y+2000000D02*
X+1186725Y+1994665D01*
X+1188551Y+1983993D01*
X+1192376Y+1973321D01*
X+1198647Y+1962649D01*
X+1208220Y+1952181D01*
X+1218892Y+1944642D01*
X+1229564Y+1939878D01*
X+1240236Y+1937255D01*
X+1250000Y+1936500D01*
X+1313500Y+2000000D02*
X+1313275Y+1994665D01*
X+1311449Y+1983993D01*
X+1307624Y+1973321D01*
X+1301353Y+1962649D01*
X+1291780Y+1952181D01*
X+1281108Y+1944642D01*
X+1270436Y+1939878D01*
X+1259764Y+1937255D01*
X+1250000Y+1936500D01*
X+1294901Y+2044901D02*
X+1205099Y+1955099D01*
X+1294901Y+1955099D02*
X+1205099Y+2044901D01*
X+1313500Y+1746000D02*
X+1313275Y+1751335D01*
X+1311449Y+1762007D01*
X+1307624Y+1772679D01*
X+1301353Y+1783351D01*
X+1291780Y+1793819D01*
X+1281108Y+1801358D01*
X+1270436Y+1806122D01*
X+1259764Y+1808745D01*
X+1250000Y+1809500D01*
X+1186500Y+1746000D02*
X+1186725Y+1751335D01*
X+1188551Y+1762007D01*
X+1192376Y+1772679D01*
X+1198647Y+1783351D01*
X+1208220Y+1793819D01*
X+1218892Y+1801358D01*
X+1229564Y+1806122D01*
X+1240236Y+1808745D01*
X+1250000Y+1809500D01*
X+1186500Y+1746000D02*
X+1186725Y+1740665D01*
X+1188551Y+1729993D01*
X+1192376Y+1719321D01*
X+1198647Y+1708649D01*
X+1208220Y+1698181D01*
X+1218892Y+1690642D01*
X+1229564Y+1685878D01*
X+1240236Y+1683255D01*
X+1250000Y+1682500D01*
X+1313500Y+1746000D02*
X+1313275Y+1740665D01*
X+1311449Y+1729993D01*
X+1307624Y+1719321D01*
X+1301353Y+1708649D01*
X+1291780Y+1698181D01*
X+1281108Y+1690642D01*
X+1270436Y+1685878D01*
X+1259764Y+1683255D01*
X+1250000Y+1682500D01*
X+1294901Y+1790901D02*
X+1205099Y+1701099D01*
X+1294901Y+1701099D02*
X+1205099Y+1790901D01*
X+1313500Y+1492000D02*
X+1313275Y+1497335D01*
X+1311449Y+1508007D01*
X+1307624Y+1518679D01*
X+1301353Y+1529351D01*
X+1291780Y+1539819D01*
X+1281108Y+1547358D01*
X+1270436Y+1552122D01*
X+1259764Y+1554745D01*
X+1250000Y+1555500D01*
X+1186500Y+1492000D02*
X+1186725Y+1497335D01*
X+1188551Y+1508007D01*
X+1192376Y+1518679D01*
X+1198647Y+1529351D01*
X+1208220Y+1539819D01*
X+1218892Y+1547358D01*
X+1229564Y+1552122D01*
X+1240236Y+1554745D01*
X+1250000Y+1555500D01*
X+1186500Y+1492000D02*
X+1186725Y+1486665D01*
X+1188551Y+1475993D01*
X+1192376Y+1465321D01*
X+1198647Y+1454649D01*
X+1208220Y+1444181D01*
X+1218892Y+1436642D01*
X+1229564Y+1431878D01*
X+1240236Y+1429255D01*
X+1250000Y+1428500D01*
X+1313500Y+1492000D02*
X+1313275Y+1486665D01*
X+1311449Y+1475993D01*
X+1307624Y+1465321D01*
X+1301353Y+1454649D01*
X+1291780Y+1444181D01*
X+1281108Y+1436642D01*
X+1270436Y+1431878D01*
X+1259764Y+1429255D01*
X+1250000Y+1428500D01*
X+1294901Y+1536901D02*
X+1205099Y+1447099D01*
X+1294901Y+1447099D02*
X+1205099Y+1536901D01*
X+1313500Y+1238000D02*
X+1313275Y+1243335D01*
X+1311449Y+1254007D01*
X+1307624Y+1264679D01*
X+1301353Y+1275351D01*
X+1291780Y+1285819D01*
X+1281108Y+1293358D01*
X+1270436Y+1298122D01*
X+1259764Y+1300745D01*
X+1250000Y+1301500D01*
X+1186500Y+1238000D02*
X+1186725Y+1243335D01*
X+1188551Y+1254007D01*
X+1192376Y+1264679D01*
X+1198647Y+1275351D01*
X+1208220Y+1285819D01*
X+1218892Y+1293358D01*
X+1229564Y+1298122D01*
X+1240236Y+1300745D01*
X+1250000Y+1301500D01*
X+1186500Y+1238000D02*
X+1186725Y+1232665D01*
X+1188551Y+1221993D01*
X+1192376Y+1211321D01*
X+1198647Y+1200649D01*
X+1208220Y+1190181D01*
X+1218892Y+1182642D01*
X+1229564Y+1177878D01*
X+1240236Y+1175255D01*
X+1250000Y+1174500D01*
X+1313500Y+1238000D02*
X+1313275Y+1232665D01*
X+1311449Y+1221993D01*
X+1307624Y+1211321D01*
X+1301353Y+1200649D01*
X+1291780Y+1190181D01*
X+1281108Y+1182642D01*
X+1270436Y+1177878D01*
X+1259764Y+1175255D01*
X+1250000Y+1174500D01*
X+1294901Y+1282901D02*
X+1205099Y+1193099D01*
X+1294901Y+1193099D02*
X+1205099Y+1282901D01*
X+1313500Y+984000D02*
X+1313275Y+989335D01*
X+1311449Y+1000007D01*
X+1307624Y+1010679D01*
X+1301353Y+1021351D01*
X+1291780Y+1031819D01*
X+1281108Y+1039358D01*
X+1270436Y+1044122D01*
X+1259764Y+1046745D01*
X+1250000Y+1047500D01*
X+1186500Y+984000D02*
X+1186725Y+989335D01*
X+1188551Y+1000007D01*
X+1192376Y+1010679D01*
X+1198647Y+1021351D01*
X+1208220Y+1031819D01*
X+1218892Y+1039358D01*
X+1229564Y+1044122D01*
X+1240236Y+1046745D01*
X+1250000Y+1047500D01*
X+1186500Y+984000D02*
X+1186725Y+978665D01*
X+1188551Y+967993D01*
X+1192376Y+957321D01*
X+1198647Y+946649D01*
X+1208220Y+936181D01*
X+1218892Y+928642D01*
X+1229564Y+923878D01*
X+1240236Y+921255D01*
X+1250000Y+920500D01*
X+1313500Y+984000D02*
X+1313275Y+978665D01*
X+1311449Y+967993D01*
X+1307624Y+957321D01*
X+1301353Y+946649D01*
X+1291780Y+936181D01*
X+1281108Y+928642D01*
X+1270436Y+923878D01*
X+1259764Y+921255D01*
X+1250000Y+920500D01*
X+1294901Y+1028901D02*
X+1205099Y+939099D01*
X+1294901Y+939099D02*
X+1205099Y+1028901D01*
X+1313500Y+730000D02*
X+1313275Y+735335D01*
X+1311449Y+746007D01*
X+1307624Y+756679D01*
X+1301353Y+767351D01*
X+1291780Y+777819D01*
X+1281108Y+785358D01*
X+1270436Y+790122D01*
X+1259764Y+792745D01*
X+1250000Y+793500D01*
X+1186500Y+730000D02*
X+1186725Y+735335D01*
X+1188551Y+746007D01*
X+1192376Y+756679D01*
X+1198647Y+767351D01*
X+1208220Y+777819D01*
X+1218892Y+785358D01*
X+1229564Y+790122D01*
X+1240236Y+792745D01*
X+1250000Y+793500D01*
X+1186500Y+730000D02*
X+1186725Y+724665D01*
X+1188551Y+713993D01*
X+1192376Y+703321D01*
X+1198647Y+692649D01*
X+1208220Y+682181D01*
X+1218892Y+674642D01*
X+1229564Y+669878D01*
X+1240236Y+667255D01*
X+1250000Y+666500D01*
X+1313500Y+730000D02*
X+1313275Y+724665D01*
X+1311449Y+713993D01*
X+1307624Y+703321D01*
X+1301353Y+692649D01*
X+1291780Y+682181D01*
X+1281108Y+674642D01*
X+1270436Y+669878D01*
X+1259764Y+667255D01*
X+1250000Y+666500D01*
X+1294901Y+774901D02*
X+1205099Y+685099D01*
X+1294901Y+685099D02*
X+1205099Y+774901D01*
X+1921901Y+2294901D02*
X+1832099Y+2205099D01*
X+1921901Y+2205099D02*
X+1832099Y+2294901D01*
X+1921901Y+1278901D02*
X+1832099Y+1189099D01*
X+1921901Y+1189099D02*
X+1832099Y+1278901D01*
X+2544901Y+1294901D02*
X+2455099Y+1205099D01*
X+2544901Y+1205099D02*
X+2455099Y+1294901D01*
X+2544901Y+2310901D02*
X+2455099Y+2221099D01*
X+2544901Y+2221099D02*
X+2455099Y+2310901D01*
X-1205099Y+544901D02*
X-1294901Y+455099D01*
X-1205099Y+455099D02*
X-1294901Y+544901D01*
X-2221099Y+544901D02*
X-2310901Y+455099D01*
X-2221099Y+455099D02*
X-2310901Y+544901D01*
X-1205099Y+1544901D02*
X-1294901Y+1455099D01*
X-1205099Y+1455099D02*
X-1294901Y+1544901D01*
X-2221099Y+1544901D02*
X-2310901Y+1455099D01*
X-2221099Y+1455099D02*
X-2310901Y+1544901D01*
X-2500000Y+1194500D02*
X-2500000Y+1067500D01*
X-2436500Y+1131000D02*
X-2563500Y+1131000D01*
X-2455099Y+1175901D02*
X-2544901Y+1086099D01*
X-2455099Y+1086099D02*
X-2544901Y+1175901D01*
X-2500000Y+940500D02*
X-2500000Y+813500D01*
X-2436500Y+877000D02*
X-2563500Y+877000D01*
X-2455099Y+921901D02*
X-2544901Y+832099D01*
X-2455099Y+832099D02*
X-2544901Y+921901D01*
X-998599Y+3251401D02*
X-1088401Y+3161599D01*
X-998599Y+3161599D02*
X-1088401Y+3251401D01*
X+17401Y+3251401D02*
X-72401Y+3161599D01*
X+17401Y+3161599D02*
X-72401Y+3251401D01*
X+1544901Y+3294901D02*
X+1455099Y+3205099D01*
X+1544901Y+3205099D02*
X+1455099Y+3294901D01*
X+782901Y+3294901D02*
X+693099Y+3205099D01*
X+782901Y+3205099D02*
X+693099Y+3294901D01*
X+2326901Y+2544901D02*
X+2237099Y+2455099D01*
X+2326901Y+2455099D02*
X+2237099Y+2544901D01*
X+1310901Y+2544901D02*
X+1221099Y+2455099D01*
X+1310901Y+2455099D02*
X+1221099Y+2544901D01*
X+1609000Y+2922500D02*
X+1609000Y+2795500D01*
X+1672500Y+2859000D02*
X+1545500Y+2859000D01*
X+1653901Y+2903901D02*
X+1564099Y+2814099D01*
X+1653901Y+2814099D02*
X+1564099Y+2903901D01*
X+1418500Y+2859000D02*
X+1418275Y+2864335D01*
X+1416449Y+2875007D01*
X+1412624Y+2885679D01*
X+1406353Y+2896351D01*
X+1396780Y+2906819D01*
X+1386108Y+2914358D01*
X+1375436Y+2919122D01*
X+1364764Y+2921745D01*
X+1355000Y+2922500D01*
X+1291500Y+2859000D02*
X+1291725Y+2864335D01*
X+1293551Y+2875007D01*
X+1297376Y+2885679D01*
X+1303647Y+2896351D01*
X+1313220Y+2906819D01*
X+1323892Y+2914358D01*
X+1334564Y+2919122D01*
X+1345236Y+2921745D01*
X+1355000Y+2922500D01*
X+1291500Y+2859000D02*
X+1291725Y+2853665D01*
X+1293551Y+2842993D01*
X+1297376Y+2832321D01*
X+1303647Y+2821649D01*
X+1313220Y+2811181D01*
X+1323892Y+2803642D01*
X+1334564Y+2798878D01*
X+1345236Y+2796255D01*
X+1355000Y+2795500D01*
X+1418500Y+2859000D02*
X+1418275Y+2853665D01*
X+1416449Y+2842993D01*
X+1412624Y+2832321D01*
X+1406353Y+2821649D01*
X+1396780Y+2811181D01*
X+1386108Y+2803642D01*
X+1375436Y+2798878D01*
X+1364764Y+2796255D01*
X+1355000Y+2795500D01*
X+1355000Y+2922500D02*
X+1355000Y+2795500D01*
X+1418500Y+2859000D02*
X+1291500Y+2859000D01*
X+1294901Y-2205099D02*
X+1205099Y-2294901D01*
X+1294901Y-2294901D02*
X+1205099Y-2205099D01*
X+1802901Y-2205099D02*
X+1713099Y-2294901D01*
X+1802901Y-2294901D02*
X+1713099Y-2205099D01*
X+1294901Y-1205099D02*
X+1205099Y-1294901D01*
X+1294901Y-1294901D02*
X+1205099Y-1205099D01*
X+1294901Y-1459099D02*
X+1205099Y-1548901D01*
X+1294901Y-1548901D02*
X+1205099Y-1459099D01*
X+2044901Y-1205099D02*
X+1955099Y-1294901D01*
X+2044901Y-1294901D02*
X+1955099Y-1205099D01*
X+2044901Y-1459099D02*
X+1955099Y-1548901D01*
X+2044901Y-1548901D02*
X+1955099Y-1459099D01*
X-1936500Y+3250000D02*
X-1936725Y+3255335D01*
X-1938551Y+3266007D01*
X-1942376Y+3276679D01*
X-1948647Y+3287351D01*
X-1958220Y+3297819D01*
X-1968892Y+3305358D01*
X-1979564Y+3310122D01*
X-1990236Y+3312745D01*
X-2000000Y+3313500D01*
X-2063500Y+3250000D02*
X-2063275Y+3255335D01*
X-2061449Y+3266007D01*
X-2057624Y+3276679D01*
X-2051353Y+3287351D01*
X-2041780Y+3297819D01*
X-2031108Y+3305358D01*
X-2020436Y+3310122D01*
X-2009764Y+3312745D01*
X-2000000Y+3313500D01*
X-2063500Y+3250000D02*
X-2063275Y+3244665D01*
X-2061449Y+3233993D01*
X-2057624Y+3223321D01*
X-2051353Y+3212649D01*
X-2041780Y+3202181D01*
X-2031108Y+3194642D01*
X-2020436Y+3189878D01*
X-2009764Y+3187255D01*
X-2000000Y+3186500D01*
X-1936500Y+3250000D02*
X-1936725Y+3244665D01*
X-1938551Y+3233993D01*
X-1942376Y+3223321D01*
X-1948647Y+3212649D01*
X-1958220Y+3202181D01*
X-1968892Y+3194642D01*
X-1979564Y+3189878D01*
X-1990236Y+3187255D01*
X-2000000Y+3186500D01*
X-1955099Y+3294901D02*
X-2044901Y+3205099D01*
X-1955099Y+3205099D02*
X-2044901Y+3294901D01*
X-1936500Y+2996000D02*
X-1936725Y+3001335D01*
X-1938551Y+3012007D01*
X-1942376Y+3022679D01*
X-1948647Y+3033351D01*
X-1958220Y+3043819D01*
X-1968892Y+3051358D01*
X-1979564Y+3056122D01*
X-1990236Y+3058745D01*
X-2000000Y+3059500D01*
X-2063500Y+2996000D02*
X-2063275Y+3001335D01*
X-2061449Y+3012007D01*
X-2057624Y+3022679D01*
X-2051353Y+3033351D01*
X-2041780Y+3043819D01*
X-2031108Y+3051358D01*
X-2020436Y+3056122D01*
X-2009764Y+3058745D01*
X-2000000Y+3059500D01*
X-2063500Y+2996000D02*
X-2063275Y+2990665D01*
X-2061449Y+2979993D01*
X-2057624Y+2969321D01*
X-2051353Y+2958649D01*
X-2041780Y+2948181D01*
X-2031108Y+2940642D01*
X-2020436Y+2935878D01*
X-2009764Y+2933255D01*
X-2000000Y+2932500D01*
X-1936500Y+2996000D02*
X-1936725Y+2990665D01*
X-1938551Y+2979993D01*
X-1942376Y+2969321D01*
X-1948647Y+2958649D01*
X-1958220Y+2948181D01*
X-1968892Y+2940642D01*
X-1979564Y+2935878D01*
X-1990236Y+2933255D01*
X-2000000Y+2932500D01*
X-1955099Y+3040901D02*
X-2044901Y+2951099D01*
X-1955099Y+2951099D02*
X-2044901Y+3040901D01*
X-1936500Y+2742000D02*
X-1936725Y+2747335D01*
X-1938551Y+2758007D01*
X-1942376Y+2768679D01*
X-1948647Y+2779351D01*
X-1958220Y+2789819D01*
X-1968892Y+2797358D01*
X-1979564Y+2802122D01*
X-1990236Y+2804745D01*
X-2000000Y+2805500D01*
X-2063500Y+2742000D02*
X-2063275Y+2747335D01*
X-2061449Y+2758007D01*
X-2057624Y+2768679D01*
X-2051353Y+2779351D01*
X-2041780Y+2789819D01*
X-2031108Y+2797358D01*
X-2020436Y+2802122D01*
X-2009764Y+2804745D01*
X-2000000Y+2805500D01*
X-2063500Y+2742000D02*
X-2063275Y+2736665D01*
X-2061449Y+2725993D01*
X-2057624Y+2715321D01*
X-2051353Y+2704649D01*
X-2041780Y+2694181D01*
X-2031108Y+2686642D01*
X-2020436Y+2681878D01*
X-2009764Y+2679255D01*
X-2000000Y+2678500D01*
X-1936500Y+2742000D02*
X-1936725Y+2736665D01*
X-1938551Y+2725993D01*
X-1942376Y+2715321D01*
X-1948647Y+2704649D01*
X-1958220Y+2694181D01*
X-1968892Y+2686642D01*
X-1979564Y+2681878D01*
X-1990236Y+2679255D01*
X-2000000Y+2678500D01*
X-1955099Y+2786901D02*
X-2044901Y+2697099D01*
X-1955099Y+2697099D02*
X-2044901Y+2786901D01*
X-1936500Y+2488000D02*
X-1936725Y+2493335D01*
X-1938551Y+2504007D01*
X-1942376Y+2514679D01*
X-1948647Y+2525351D01*
X-1958220Y+2535819D01*
X-1968892Y+2543358D01*
X-1979564Y+2548122D01*
X-1990236Y+2550745D01*
X-2000000Y+2551500D01*
X-2063500Y+2488000D02*
X-2063275Y+2493335D01*
X-2061449Y+2504007D01*
X-2057624Y+2514679D01*
X-2051353Y+2525351D01*
X-2041780Y+2535819D01*
X-2031108Y+2543358D01*
X-2020436Y+2548122D01*
X-2009764Y+2550745D01*
X-2000000Y+2551500D01*
X-2063500Y+2488000D02*
X-2063275Y+2482665D01*
X-2061449Y+2471993D01*
X-2057624Y+2461321D01*
X-2051353Y+2450649D01*
X-2041780Y+2440181D01*
X-2031108Y+2432642D01*
X-2020436Y+2427878D01*
X-2009764Y+2425255D01*
X-2000000Y+2424500D01*
X-1936500Y+2488000D02*
X-1936725Y+2482665D01*
X-1938551Y+2471993D01*
X-1942376Y+2461321D01*
X-1948647Y+2450649D01*
X-1958220Y+2440181D01*
X-1968892Y+2432642D01*
X-1979564Y+2427878D01*
X-1990236Y+2425255D01*
X-2000000Y+2424500D01*
X-1955099Y+2532901D02*
X-2044901Y+2443099D01*
X-1955099Y+2443099D02*
X-2044901Y+2532901D01*
X-1936500Y+2234000D02*
X-1936725Y+2239335D01*
X-1938551Y+2250007D01*
X-1942376Y+2260679D01*
X-1948647Y+2271351D01*
X-1958220Y+2281819D01*
X-1968892Y+2289358D01*
X-1979564Y+2294122D01*
X-1990236Y+2296745D01*
X-2000000Y+2297500D01*
X-2063500Y+2234000D02*
X-2063275Y+2239335D01*
X-2061449Y+2250007D01*
X-2057624Y+2260679D01*
X-2051353Y+2271351D01*
X-2041780Y+2281819D01*
X-2031108Y+2289358D01*
X-2020436Y+2294122D01*
X-2009764Y+2296745D01*
X-2000000Y+2297500D01*
X-2063500Y+2234000D02*
X-2063275Y+2228665D01*
X-2061449Y+2217993D01*
X-2057624Y+2207321D01*
X-2051353Y+2196649D01*
X-2041780Y+2186181D01*
X-2031108Y+2178642D01*
X-2020436Y+2173878D01*
X-2009764Y+2171255D01*
X-2000000Y+2170500D01*
X-1936500Y+2234000D02*
X-1936725Y+2228665D01*
X-1938551Y+2217993D01*
X-1942376Y+2207321D01*
X-1948647Y+2196649D01*
X-1958220Y+2186181D01*
X-1968892Y+2178642D01*
X-1979564Y+2173878D01*
X-1990236Y+2171255D01*
X-2000000Y+2170500D01*
X-1955099Y+2278901D02*
X-2044901Y+2189099D01*
X-1955099Y+2189099D02*
X-2044901Y+2278901D01*
X-1936500Y+1980000D02*
X-1936725Y+1985335D01*
X-1938551Y+1996007D01*
X-1942376Y+2006679D01*
X-1948647Y+2017351D01*
X-1958220Y+2027819D01*
X-1968892Y+2035358D01*
X-1979564Y+2040122D01*
X-1990236Y+2042745D01*
X-2000000Y+2043500D01*
X-2063500Y+1980000D02*
X-2063275Y+1985335D01*
X-2061449Y+1996007D01*
X-2057624Y+2006679D01*
X-2051353Y+2017351D01*
X-2041780Y+2027819D01*
X-2031108Y+2035358D01*
X-2020436Y+2040122D01*
X-2009764Y+2042745D01*
X-2000000Y+2043500D01*
X-2063500Y+1980000D02*
X-2063275Y+1974665D01*
X-2061449Y+1963993D01*
X-2057624Y+1953321D01*
X-2051353Y+1942649D01*
X-2041780Y+1932181D01*
X-2031108Y+1924642D01*
X-2020436Y+1919878D01*
X-2009764Y+1917255D01*
X-2000000Y+1916500D01*
X-1936500Y+1980000D02*
X-1936725Y+1974665D01*
X-1938551Y+1963993D01*
X-1942376Y+1953321D01*
X-1948647Y+1942649D01*
X-1958220Y+1932181D01*
X-1968892Y+1924642D01*
X-1979564Y+1919878D01*
X-1990236Y+1917255D01*
X-2000000Y+1916500D01*
X-1955099Y+2024901D02*
X-2044901Y+1935099D01*
X-1955099Y+1935099D02*
X-2044901Y+2024901D01*
X-3000000Y+1063500D02*
X-3000000Y+936500D01*
X-2936500Y+1000000D02*
X-3063500Y+1000000D01*
X-2955099Y+1044901D02*
X-3044901Y+955099D01*
X-2955099Y+955099D02*
X-3044901Y+1044901D01*
X-3000000Y+1317500D02*
X-3000000Y+1190500D01*
X-2936500Y+1254000D02*
X-3063500Y+1254000D01*
X-2955099Y+1298901D02*
X-3044901Y+1209099D01*
X-2955099Y+1209099D02*
X-3044901Y+1298901D01*
X-2705099Y+1794901D02*
X-2794901Y+1705099D01*
X-2705099Y+1705099D02*
X-2794901Y+1794901D01*
X-2705099Y+2810901D02*
X-2794901Y+2721099D01*
X-2705099Y+2721099D02*
X-2794901Y+2810901D01*
X+2294901Y+544901D02*
X+2205099Y+455099D01*
X+2294901Y+455099D02*
X+2205099Y+544901D01*
X+2040901Y+544901D02*
X+1951099Y+455099D01*
X+2040901Y+455099D02*
X+1951099Y+544901D01*
X+2294901Y-455099D02*
X+2205099Y-544901D01*
X+2294901Y-544901D02*
X+2205099Y-455099D01*
X+2040901Y-455099D02*
X+1951099Y-544901D01*
X+2040901Y-544901D02*
X+1951099Y-455099D01*
X+2294901Y+3794901D02*
X+2205099Y+3705099D01*
X+2294901Y+3705099D02*
X+2205099Y+3794901D01*
X+2294901Y+2778901D02*
X+2205099Y+2689099D01*
X+2294901Y+2689099D02*
X+2205099Y+2778901D01*
D18*
X+362020Y-4551060D02*
X+3006160Y-4551060D01*
X+3006160Y-3065160D01*
X+362020Y-3065160D01*
X+362020Y-4551060D01*
D16*
X+2538798Y-3065160D02*
X+2538798Y-4551060D01*
X+1725998Y-3065160D02*
X+1725998Y-4551060D01*
X+892878Y-3065160D02*
X+892878Y-4551060D01*
X+3006160Y-3338210D02*
X+362020Y-3338210D01*
X+3006160Y-3579510D02*
X+362020Y-3579510D01*
X+3006160Y-3820810D02*
X+362020Y-3820810D01*
X+3006160Y-4062110D02*
X+362020Y-4062110D01*
X+3006160Y-4303410D02*
X+362020Y-4303410D01*
D18*
X+2583250Y-3228990D02*
X+2598490Y-3244230D01*
X+2659450Y-3244230D01*
X+2674690Y-3228990D01*
X+2674690Y-3213750D01*
X+2659450Y-3198510D01*
X+2598490Y-3198510D01*
X+2583250Y-3183270D01*
X+2583250Y-3168030D01*
X+2598490Y-3152790D01*
X+2659450Y-3152790D01*
X+2674690Y-3168030D01*
X+2796610Y-3152790D02*
X+2705170Y-3244230D01*
X+2705170Y-3152790D02*
X+2750890Y-3198510D01*
X+2827090Y-3244230D02*
X+2827090Y-3152790D01*
X+2872810Y-3198510D01*
X+2918530Y-3152790D01*
X+2918530Y-3244230D01*
X+1993970Y-3228990D02*
X+2009210Y-3244230D01*
X+2070170Y-3244230D01*
X+2085410Y-3228990D01*
X+2085410Y-3213750D01*
X+2070170Y-3198510D01*
X+2009210Y-3198510D01*
X+1993970Y-3183270D01*
X+1993970Y-3168030D01*
X+2009210Y-3152790D01*
X+2070170Y-3152790D01*
X+2085410Y-3168030D01*
X+2131130Y-3152790D02*
X+2192090Y-3152790D01*
X+2161610Y-3152790D02*
X+2161610Y-3244230D01*
X+2131130Y-3244230D02*
X+2192090Y-3244230D01*
X+2237810Y-3152790D02*
X+2329250Y-3152790D01*
X+2237810Y-3244230D01*
X+2329250Y-3244230D01*
X+2451170Y-3244230D02*
X+2359730Y-3244230D01*
X+2359730Y-3152790D01*
X+2451170Y-3152790D01*
X+2359730Y-3198510D02*
X+2420690Y-3198510D01*
X+937330Y-3244230D02*
X+937330Y-3152790D01*
X+1013530Y-3152790D01*
X+1028770Y-3168030D01*
X+1028770Y-3183270D01*
X+1013530Y-3198510D01*
X+937330Y-3198510D01*
X+1059250Y-3152790D02*
X+1059250Y-3244230D01*
X+1150690Y-3244230D01*
X+1181170Y-3244230D02*
X+1181170Y-3183270D01*
X+1211650Y-3152790D01*
X+1242130Y-3152790D01*
X+1272610Y-3183270D01*
X+1272610Y-3244230D01*
X+1181170Y-3213750D02*
X+1272610Y-3213750D01*
X+1303090Y-3152790D02*
X+1394530Y-3152790D01*
X+1348810Y-3152790D02*
X+1348810Y-3244230D01*
X+1516450Y-3244230D02*
X+1425010Y-3244230D01*
X+1425010Y-3152790D01*
X+1516450Y-3152790D01*
X+1425010Y-3198510D02*
X+1485970Y-3198510D01*
X+1546930Y-3244230D02*
X+1546930Y-3152790D01*
X+1607890Y-3152790D01*
X+1638370Y-3183270D01*
X+1638370Y-3213750D01*
X+1607890Y-3244230D01*
X+1546930Y-3244230D01*
X+469970Y-3183270D02*
X+500450Y-3152790D01*
X+530930Y-3152790D01*
X+561410Y-3183270D01*
X+561410Y-3213750D01*
X+530930Y-3244230D01*
X+500450Y-3244230D01*
X+469970Y-3213750D01*
X+469970Y-3183270D01*
X+530930Y-3213750D02*
X+561410Y-3244230D01*
X+591890Y-3152790D02*
X+683330Y-3152790D01*
X+637610Y-3152790D02*
X+637610Y-3244230D01*
X+805250Y-3152790D02*
X+713810Y-3244230D01*
X+713810Y-3152790D02*
X+759530Y-3198510D01*
D17*
X+2759780Y-3389010D02*
X+2759780Y-3516010D01*
X+2823280Y-3452510D02*
X+2696280Y-3452510D01*
D18*
X+1751400Y-3477910D02*
X+1751400Y-3427110D01*
X+1764100Y-3414410D01*
X+1814900Y-3414410D01*
X+1827600Y-3427110D01*
X+1827600Y-3477910D01*
X+1814900Y-3490610D01*
X+1764100Y-3490610D01*
X+1751400Y-3477910D01*
X+1751400Y-3490610D02*
X+1827600Y-3414410D01*
X+1891100Y-3477910D02*
X+1903800Y-3477910D01*
X+1903800Y-3490610D01*
X+1891100Y-3490610D01*
X+1891100Y-3477910D01*
X+2030800Y-3427110D02*
X+2018100Y-3414410D01*
X+1980000Y-3414410D01*
X+1967300Y-3427110D01*
X+1967300Y-3477910D01*
X+1980000Y-3490610D01*
X+2018100Y-3490610D01*
X+2030800Y-3477910D01*
X+2030800Y-3465210D01*
X+2018100Y-3452510D01*
X+1967300Y-3452510D01*
X+2068900Y-3427110D02*
X+2081600Y-3414410D01*
X+2119700Y-3414410D01*
X+2132400Y-3427110D01*
X+2132400Y-3439810D01*
X+2119700Y-3452510D01*
X+2132400Y-3465210D01*
X+2132400Y-3477910D01*
X+2119700Y-3490610D01*
X+2081600Y-3490610D01*
X+2068900Y-3477910D01*
X+2094300Y-3452510D02*
X+2119700Y-3452510D01*
X+2234000Y-3414410D02*
X+2170500Y-3414410D01*
X+2170500Y-3439810D01*
X+2221300Y-3439810D01*
X+2234000Y-3452510D01*
X+2234000Y-3477910D01*
X+2221300Y-3490610D01*
X+2183200Y-3490610D01*
X+2170500Y-3477910D01*
X+2259400Y-3490610D02*
X+2259400Y-3439810D01*
X+2259400Y-3452510D02*
X+2272100Y-3439810D01*
X+2297500Y-3465210D01*
X+2322900Y-3439810D01*
X+2335600Y-3452510D01*
X+2335600Y-3490610D01*
X+2361000Y-3490610D02*
X+2361000Y-3439810D01*
X+2361000Y-3452510D02*
X+2373700Y-3439810D01*
X+2399100Y-3465210D01*
X+2424500Y-3439810D01*
X+2437200Y-3452510D01*
X+2437200Y-3490610D01*
X+1408500Y-3414410D02*
X+1332300Y-3490610D01*
X+1332300Y-3414410D02*
X+1370400Y-3452510D01*
X+1510100Y-3490610D02*
X+1433900Y-3490610D01*
X+1433900Y-3414410D01*
X+1510100Y-3414410D01*
X+1433900Y-3452510D02*
X+1484700Y-3452510D01*
X+1535500Y-3477910D02*
X+1548200Y-3490610D01*
X+1599000Y-3490610D01*
X+1611700Y-3477910D01*
X+1611700Y-3465210D01*
X+1599000Y-3452510D01*
X+1548200Y-3452510D01*
X+1535500Y-3439810D01*
X+1535500Y-3427110D01*
X+1548200Y-3414410D01*
X+1599000Y-3414410D01*
X+1611700Y-3427110D01*
X+702380Y-3427110D02*
X+715080Y-3414410D01*
X+753180Y-3414410D01*
X+765880Y-3427110D01*
X+765880Y-3439810D01*
X+753180Y-3452510D01*
X+715080Y-3452510D01*
X+702380Y-3465210D01*
X+702380Y-3490610D01*
X+765880Y-3490610D01*
D17*
X+2804681Y-3648909D02*
X+2714879Y-3738711D01*
X+2804681Y-3738711D02*
X+2714879Y-3648909D01*
D18*
X+1751400Y-3719210D02*
X+1751400Y-3668410D01*
X+1764100Y-3655710D01*
X+1814900Y-3655710D01*
X+1827600Y-3668410D01*
X+1827600Y-3719210D01*
X+1814900Y-3731910D01*
X+1764100Y-3731910D01*
X+1751400Y-3719210D01*
X+1751400Y-3731910D02*
X+1827600Y-3655710D01*
X+1891100Y-3719210D02*
X+1903800Y-3719210D01*
X+1903800Y-3731910D01*
X+1891100Y-3731910D01*
X+1891100Y-3719210D01*
X+1967300Y-3655710D02*
X+2030800Y-3655710D01*
X+2030800Y-3668410D01*
X+1967300Y-3731910D01*
X+2132400Y-3668410D02*
X+2119700Y-3655710D01*
X+2081600Y-3655710D01*
X+2068900Y-3668410D01*
X+2068900Y-3719210D01*
X+2081600Y-3731910D01*
X+2119700Y-3731910D01*
X+2132400Y-3719210D01*
X+2132400Y-3706510D01*
X+2119700Y-3693810D01*
X+2068900Y-3693810D01*
X+2170500Y-3668410D02*
X+2183200Y-3655710D01*
X+2221300Y-3655710D01*
X+2234000Y-3668410D01*
X+2234000Y-3681110D01*
X+2221300Y-3693810D01*
X+2183200Y-3693810D01*
X+2170500Y-3706510D01*
X+2170500Y-3731910D01*
X+2234000Y-3731910D01*
X+2259400Y-3731910D02*
X+2259400Y-3681110D01*
X+2259400Y-3693810D02*
X+2272100Y-3681110D01*
X+2297500Y-3706510D01*
X+2322900Y-3681110D01*
X+2335600Y-3693810D01*
X+2335600Y-3731910D01*
X+2361000Y-3731910D02*
X+2361000Y-3681110D01*
X+2361000Y-3693810D02*
X+2373700Y-3681110D01*
X+2399100Y-3706510D01*
X+2424500Y-3681110D01*
X+2437200Y-3693810D01*
X+2437200Y-3731910D01*
X+1408500Y-3655710D02*
X+1332300Y-3731910D01*
X+1332300Y-3655710D02*
X+1370400Y-3693810D01*
X+1510100Y-3731910D02*
X+1433900Y-3731910D01*
X+1433900Y-3655710D01*
X+1510100Y-3655710D01*
X+1433900Y-3693810D02*
X+1484700Y-3693810D01*
X+1535500Y-3719210D02*
X+1548200Y-3731910D01*
X+1599000Y-3731910D01*
X+1611700Y-3719210D01*
X+1611700Y-3706510D01*
X+1599000Y-3693810D01*
X+1548200Y-3693810D01*
X+1535500Y-3681110D01*
X+1535500Y-3668410D01*
X+1548200Y-3655710D01*
X+1599000Y-3655710D01*
X+1611700Y-3668410D01*
X+664280Y-3668410D02*
X+651580Y-3655710D01*
X+613480Y-3655710D01*
X+600780Y-3668410D01*
X+600780Y-3719210D01*
X+613480Y-3731910D01*
X+651580Y-3731910D01*
X+664280Y-3719210D01*
X+664280Y-3706510D01*
X+651580Y-3693810D01*
X+600780Y-3693810D01*
X+765880Y-3668410D02*
X+753180Y-3655710D01*
X+715080Y-3655710D01*
X+702380Y-3668410D01*
X+702380Y-3719210D01*
X+715080Y-3731910D01*
X+753180Y-3731910D01*
X+765880Y-3719210D01*
X+765880Y-3706510D01*
X+753180Y-3693810D01*
X+702380Y-3693810D01*
D17*
X+2759780Y-3871610D02*
X+2759780Y-3998610D01*
X+2823280Y-3935110D02*
X+2696280Y-3935110D01*
X+2804681Y-3890209D02*
X+2714879Y-3980011D01*
X+2804681Y-3980011D02*
X+2714879Y-3890209D01*
D18*
X+1776800Y-3922410D02*
X+1802200Y-3897010D01*
X+1802200Y-3973210D01*
X+1891100Y-3960510D02*
X+1903800Y-3960510D01*
X+1903800Y-3973210D01*
X+1891100Y-3973210D01*
X+1891100Y-3960510D01*
X+1954600Y-3960510D02*
X+1954600Y-3909710D01*
X+1967300Y-3897010D01*
X+2018100Y-3897010D01*
X+2030800Y-3909710D01*
X+2030800Y-3960510D01*
X+2018100Y-3973210D01*
X+1967300Y-3973210D01*
X+1954600Y-3960510D01*
X+1954600Y-3973210D02*
X+2030800Y-3897010D01*
X+2081600Y-3922410D02*
X+2107000Y-3897010D01*
X+2107000Y-3973210D01*
X+2234000Y-3909710D02*
X+2221300Y-3897010D01*
X+2183200Y-3897010D01*
X+2170500Y-3909710D01*
X+2170500Y-3960510D01*
X+2183200Y-3973210D01*
X+2221300Y-3973210D01*
X+2234000Y-3960510D01*
X+2234000Y-3947810D01*
X+2221300Y-3935110D01*
X+2170500Y-3935110D01*
X+2259400Y-3973210D02*
X+2259400Y-3922410D01*
X+2259400Y-3935110D02*
X+2272100Y-3922410D01*
X+2297500Y-3947810D01*
X+2322900Y-3922410D01*
X+2335600Y-3935110D01*
X+2335600Y-3973210D01*
X+2361000Y-3973210D02*
X+2361000Y-3922410D01*
X+2361000Y-3935110D02*
X+2373700Y-3922410D01*
X+2399100Y-3947810D01*
X+2424500Y-3922410D01*
X+2437200Y-3935110D01*
X+2437200Y-3973210D01*
X+1408500Y-3897010D02*
X+1332300Y-3973210D01*
X+1332300Y-3897010D02*
X+1370400Y-3935110D01*
X+1510100Y-3973210D02*
X+1433900Y-3973210D01*
X+1433900Y-3897010D01*
X+1510100Y-3897010D01*
X+1433900Y-3935110D02*
X+1484700Y-3935110D01*
X+1535500Y-3960510D02*
X+1548200Y-3973210D01*
X+1599000Y-3973210D01*
X+1611700Y-3960510D01*
X+1611700Y-3947810D01*
X+1599000Y-3935110D01*
X+1548200Y-3935110D01*
X+1535500Y-3922410D01*
X+1535500Y-3909710D01*
X+1548200Y-3897010D01*
X+1599000Y-3897010D01*
X+1611700Y-3909710D01*
X+765880Y-3897010D02*
X+702380Y-3897010D01*
X+702380Y-3922410D01*
X+753180Y-3922410D01*
X+765880Y-3935110D01*
X+765880Y-3960510D01*
X+753180Y-3973210D01*
X+715080Y-3973210D01*
X+702380Y-3960510D01*
D17*
X+2823280Y-4176410D02*
X+2823055Y-4171075D01*
X+2821229Y-4160403D01*
X+2817404Y-4149731D01*
X+2811133Y-4139059D01*
X+2801560Y-4128591D01*
X+2790888Y-4121052D01*
X+2780216Y-4116288D01*
X+2769544Y-4113665D01*
X+2759780Y-4112910D01*
X+2696280Y-4176410D02*
X+2696505Y-4171075D01*
X+2698331Y-4160403D01*
X+2702156Y-4149731D01*
X+2708427Y-4139059D01*
X+2718000Y-4128591D01*
X+2728672Y-4121052D01*
X+2739344Y-4116288D01*
X+2750016Y-4113665D01*
X+2759780Y-4112910D01*
X+2696280Y-4176410D02*
X+2696505Y-4181745D01*
X+2698331Y-4192417D01*
X+2702156Y-4203089D01*
X+2708427Y-4213761D01*
X+2718000Y-4224229D01*
X+2728672Y-4231768D01*
X+2739344Y-4236532D01*
X+2750016Y-4239155D01*
X+2759780Y-4239910D01*
X+2823280Y-4176410D02*
X+2823055Y-4181745D01*
X+2821229Y-4192417D01*
X+2817404Y-4203089D01*
X+2811133Y-4213761D01*
X+2801560Y-4224229D01*
X+2790888Y-4231768D01*
X+2780216Y-4236532D01*
X+2769544Y-4239155D01*
X+2759780Y-4239910D01*
X+2759780Y-4112910D02*
X+2759780Y-4239910D01*
X+2823280Y-4176410D02*
X+2696280Y-4176410D01*
D18*
X+1878400Y-4163710D02*
X+1903800Y-4138310D01*
X+1903800Y-4214510D01*
X+1992700Y-4201810D02*
X+2005400Y-4201810D01*
X+2005400Y-4214510D01*
X+1992700Y-4214510D01*
X+1992700Y-4201810D01*
X+2068900Y-4151010D02*
X+2081600Y-4138310D01*
X+2119700Y-4138310D01*
X+2132400Y-4151010D01*
X+2132400Y-4163710D01*
X+2119700Y-4176410D01*
X+2081600Y-4176410D01*
X+2068900Y-4189110D01*
X+2068900Y-4214510D01*
X+2132400Y-4214510D01*
X+2170500Y-4138310D02*
X+2234000Y-4138310D01*
X+2234000Y-4151010D01*
X+2170500Y-4214510D01*
X+2259400Y-4214510D02*
X+2259400Y-4163710D01*
X+2259400Y-4176410D02*
X+2272100Y-4163710D01*
X+2297500Y-4189110D01*
X+2322900Y-4163710D01*
X+2335600Y-4176410D01*
X+2335600Y-4214510D01*
X+2361000Y-4214510D02*
X+2361000Y-4163710D01*
X+2361000Y-4176410D02*
X+2373700Y-4163710D01*
X+2399100Y-4189110D01*
X+2424500Y-4163710D01*
X+2437200Y-4176410D01*
X+2437200Y-4214510D01*
X+1408500Y-4138310D02*
X+1332300Y-4214510D01*
X+1332300Y-4138310D02*
X+1370400Y-4176410D01*
X+1510100Y-4214510D02*
X+1433900Y-4214510D01*
X+1433900Y-4138310D01*
X+1510100Y-4138310D01*
X+1433900Y-4176410D02*
X+1484700Y-4176410D01*
X+1535500Y-4201810D02*
X+1548200Y-4214510D01*
X+1599000Y-4214510D01*
X+1611700Y-4201810D01*
X+1611700Y-4189110D01*
X+1599000Y-4176410D01*
X+1548200Y-4176410D01*
X+1535500Y-4163710D01*
X+1535500Y-4151010D01*
X+1548200Y-4138310D01*
X+1599000Y-4138310D01*
X+1611700Y-4151010D01*
X+715080Y-4163710D02*
X+740480Y-4138310D01*
X+740480Y-4214510D01*
D17*
X+2823280Y-4417710D02*
X+2823055Y-4412375D01*
X+2821229Y-4401703D01*
X+2817404Y-4391031D01*
X+2811133Y-4380359D01*
X+2801560Y-4369891D01*
X+2790888Y-4362352D01*
X+2780216Y-4357588D01*
X+2769544Y-4354965D01*
X+2759780Y-4354210D01*
X+2696280Y-4417710D02*
X+2696505Y-4412375D01*
X+2698331Y-4401703D01*
X+2702156Y-4391031D01*
X+2708427Y-4380359D01*
X+2718000Y-4369891D01*
X+2728672Y-4362352D01*
X+2739344Y-4357588D01*
X+2750016Y-4354965D01*
X+2759780Y-4354210D01*
X+2696280Y-4417710D02*
X+2696505Y-4423045D01*
X+2698331Y-4433717D01*
X+2702156Y-4444389D01*
X+2708427Y-4455061D01*
X+2718000Y-4465529D01*
X+2728672Y-4473068D01*
X+2739344Y-4477832D01*
X+2750016Y-4480455D01*
X+2759780Y-4481210D01*
X+2823280Y-4417710D02*
X+2823055Y-4423045D01*
X+2821229Y-4433717D01*
X+2817404Y-4444389D01*
X+2811133Y-4455061D01*
X+2801560Y-4465529D01*
X+2790888Y-4473068D01*
X+2780216Y-4477832D01*
X+2769544Y-4480455D01*
X+2759780Y-4481210D01*
X+2804681Y-4372809D02*
X+2714879Y-4462611D01*
X+2804681Y-4462611D02*
X+2714879Y-4372809D01*
D18*
X+2183200Y-4405010D02*
X+2208600Y-4379610D01*
X+2208600Y-4455810D01*
X+2259400Y-4455810D02*
X+2259400Y-4405010D01*
X+2259400Y-4417710D02*
X+2272100Y-4405010D01*
X+2297500Y-4430410D01*
X+2322900Y-4405010D01*
X+2335600Y-4417710D01*
X+2335600Y-4455810D01*
X+2361000Y-4455810D02*
X+2361000Y-4405010D01*
X+2361000Y-4417710D02*
X+2373700Y-4405010D01*
X+2399100Y-4430410D01*
X+2424500Y-4405010D01*
X+2437200Y-4417710D01*
X+2437200Y-4455810D01*
X+1408500Y-4379610D02*
X+1332300Y-4455810D01*
X+1332300Y-4379610D02*
X+1370400Y-4417710D01*
X+1510100Y-4455810D02*
X+1433900Y-4455810D01*
X+1433900Y-4379610D01*
X+1510100Y-4379610D01*
X+1433900Y-4417710D02*
X+1484700Y-4417710D01*
X+1535500Y-4443110D02*
X+1548200Y-4455810D01*
X+1599000Y-4455810D01*
X+1611700Y-4443110D01*
X+1611700Y-4430410D01*
X+1599000Y-4417710D01*
X+1548200Y-4417710D01*
X+1535500Y-4405010D01*
X+1535500Y-4392310D01*
X+1548200Y-4379610D01*
X+1599000Y-4379610D01*
X+1611700Y-4392310D01*
X+600780Y-4392310D02*
X+613480Y-4379610D01*
X+651580Y-4379610D01*
X+664280Y-4392310D01*
X+664280Y-4405010D01*
X+651580Y-4417710D01*
X+613480Y-4417710D01*
X+600780Y-4430410D01*
X+600780Y-4455810D01*
X+664280Y-4455810D01*
X+702380Y-4392310D02*
X+715080Y-4379610D01*
X+753180Y-4379610D01*
X+765880Y-4392310D01*
X+765880Y-4405010D01*
X+753180Y-4417710D01*
X+715080Y-4417710D01*
X+702380Y-4430410D01*
X+702380Y-4455810D01*
X+765880Y-4455810D01*
M02*
