G04 PROTEUS RS274X GERBER FILE*
%FSLAX45Y45*%
%MOMM*%
G01*
%ADD10C,0.762000*%
%ADD11C,1.778000*%
%ADD12C,1.270000*%
%AMDIL003*
4,1,8,
-1.270000,0.457200,-0.965200,0.762000,0.965200,0.762000,1.270000,0.457200,1.270000,-0.457200,
0.965200,-0.762000,-0.965200,-0.762000,-1.270000,-0.457200,-1.270000,0.457200,
0*%
%ADD13DIL003*%
%ADD14C,2.032000*%
%ADD15R,2.032000X2.032000*%
%ADD16C,0.063500*%
D10*
X+1250000Y-1504000D02*
X+1079500Y-1333500D01*
X+1079500Y-1127500D01*
X+500000Y-548000D01*
X+1250000Y-1504000D02*
X+1250000Y-2250000D01*
X+500000Y-802000D02*
X+952500Y-1254500D01*
X+952500Y-1651000D01*
X+1079500Y-1778000D01*
X+1079500Y-2413000D01*
X+1206500Y-2540000D01*
X+1468000Y-2540000D01*
X+1758000Y-2250000D01*
X+500000Y-802000D02*
X+317500Y-619500D01*
X+317500Y-167000D01*
X+1651000Y-167000D01*
X+1778000Y-294000D01*
X+1778000Y-952500D01*
X+1905000Y-1079500D01*
X+2095500Y-1079500D01*
X+2222500Y-1206500D01*
X+2222500Y-1504000D01*
X+2000000Y-1504000D01*
X+2250000Y+2734000D02*
X+2250000Y+2532000D01*
X+2282000Y+2500000D01*
X+2250000Y+2734000D02*
X+2250000Y+2843000D01*
X+2000000Y+3093000D01*
X+1843000Y+3093000D01*
X+1609000Y+2859000D01*
X-1024000Y+1992000D02*
X-746000Y+1992001D01*
X-682500Y+2055501D01*
X-682500Y+2623500D01*
X-1043500Y+2984500D01*
X-1043500Y+3206500D01*
X-27500Y+3206500D02*
X+266000Y+3500000D01*
X+1206500Y+3500000D01*
X+1500000Y+3206500D01*
X+1500000Y+3250000D01*
X-2000000Y+1980000D02*
X-2595500Y+1980000D01*
X-2750000Y+2134500D01*
X-2750000Y+2766000D01*
X-1024000Y+976000D02*
X-1250000Y+1202000D01*
X-1250000Y+1500000D01*
X-1024000Y+722000D02*
X-1250000Y+722000D01*
X-1250000Y+500000D01*
X+2500000Y+2266000D02*
X+2500000Y+2095500D01*
X+2250000Y+1845500D01*
X+2250000Y+500000D01*
X+2500000Y+2266000D02*
X+1893000Y+2266000D01*
X+1877000Y+2250000D01*
X+500000Y+976000D02*
X+746000Y+730000D01*
X+1250000Y+730000D01*
X-825500Y+1611001D02*
X-825500Y+1738001D01*
X-952500Y+1865001D01*
X-1408999Y+1865001D01*
X-1524000Y+1750000D01*
X-2750000Y+1750000D01*
X-825500Y+1611001D02*
X-825500Y+1484001D01*
X-1024000Y+1484000D01*
X-1024000Y+1484001D01*
X-1460500Y+2234000D02*
X-2000000Y+2234000D01*
X-1460500Y+2234000D02*
X-1397000Y+2234000D01*
X-1384999Y+2246001D01*
X-1024000Y+2246000D01*
X-1024000Y+2500000D02*
X-1397000Y+2500000D01*
X-1409000Y+2488000D01*
X-2000000Y+2488000D01*
X+500000Y-2072000D02*
X-63500Y-2072000D01*
X-531500Y-2540000D01*
X-1143000Y-2540000D01*
X-1401000Y-2282000D01*
X-1750000Y-2282000D01*
X+500000Y-2326000D02*
X+159000Y-2667000D01*
X-1333500Y-2667000D01*
X-1464500Y-2536000D01*
X-1750000Y-2536000D01*
X-1024000Y-802000D02*
X-1333500Y-802000D01*
X-1333500Y-167000D01*
X-698500Y-167000D01*
X-571500Y-294000D01*
X-571500Y-1270000D01*
X-738500Y-1437000D01*
X-1270000Y-1437000D01*
X-1353000Y-1520000D01*
X-1750000Y-1520000D01*
X-1024000Y-548000D02*
X-762000Y-548000D01*
X-762000Y-1016000D01*
X-929000Y-1183000D01*
X-1143000Y-1183000D01*
X-1226000Y-1266000D01*
X-1750000Y-1266000D01*
X-1024000Y-294000D02*
X-1206500Y-294000D01*
X-1206500Y-675000D01*
X-889000Y-675000D01*
X-889000Y-929000D01*
X-1206500Y-929000D01*
X-1289500Y-1012000D01*
X-1750000Y-1012000D01*
X-1024000Y-40000D02*
X-1460500Y-40000D01*
X-1460500Y-758000D01*
X-1750000Y-758000D01*
X-1024000Y-2072000D02*
X-825500Y-2072000D01*
X-698500Y-1945000D01*
X-698500Y-1691000D01*
X-1143000Y-1691000D01*
X-1226000Y-1774000D01*
X-1750000Y-1774000D01*
X+1877000Y+1234000D02*
X+1651000Y+1460000D01*
X+1651000Y+2371000D01*
X+1355000Y+2667000D01*
X+1355000Y+2859000D01*
X-698500Y+952500D02*
X-802000Y+849000D01*
X-1460500Y+849000D01*
X-1587500Y+722000D01*
X-1587500Y+317500D01*
X+1778000Y-1250000D02*
X+1778000Y-1587500D01*
X+1905000Y-1714500D01*
X+2222500Y-1714500D01*
X+2349500Y-1587500D01*
X+2349500Y-825500D01*
X-1968500Y+190500D02*
X-1968500Y-504000D01*
X-1750000Y-504000D01*
X+2349500Y-825500D02*
X+1996000Y-825500D01*
X+1996000Y-500000D01*
X+1877000Y+1234000D02*
X+1877000Y+817500D01*
X+1996000Y+698500D01*
X+1996000Y+500000D01*
X-1968500Y+190500D02*
X-1841500Y+317500D01*
X-1587500Y+317500D01*
X-1484000Y+214000D01*
X-1024000Y+214000D01*
X+738000Y+3250000D02*
X+472500Y+2984500D01*
X-254000Y+2984500D01*
X-825500Y+3556000D01*
X-1841500Y+3556000D01*
X-2000000Y+3397500D01*
X-2000000Y+3250000D01*
X-3000000Y+1000000D02*
X-3000000Y+1254000D01*
X-3000000Y+1000000D02*
X-3000000Y+317500D01*
X-2873000Y+190500D01*
X-1968500Y+190500D01*
X+1460500Y-1250000D02*
X+1250000Y-1250000D01*
X+1460500Y-1250000D02*
X+1778000Y-1250000D01*
X+1460500Y-1250000D02*
X+1460500Y-421000D01*
X+1333500Y-294000D01*
X+500000Y-294000D01*
X+1996000Y+500000D02*
X+1871000Y+375000D01*
X+1583000Y+87000D01*
X+317500Y+87000D01*
X+190500Y+214000D01*
X+190500Y+825500D01*
X+63500Y+952500D01*
X-698500Y+952500D01*
X+1996000Y+500000D02*
X+2476500Y+19500D01*
X+2476500Y-698500D01*
X+2349500Y-825500D01*
X+1778000Y-1250000D02*
X+2000000Y-1250000D01*
X+738000Y+3250000D02*
X+1188500Y+3250000D01*
X+1355000Y+3083500D01*
X+1355000Y+2859000D01*
X-2266000Y+500000D02*
X-2500000Y+500000D01*
X-2500000Y+877000D01*
X-2266000Y+1500000D02*
X-2500000Y+1500000D01*
X-2500000Y+1131000D01*
X-750000Y+3250000D02*
X-929000Y+3429000D01*
X-1143000Y+3429000D01*
X-1270000Y+3302000D01*
X-1270000Y+2921000D01*
X-1449000Y+2742000D01*
X-2000000Y+2742000D01*
X+500000Y+2500000D02*
X+500000Y+2750000D01*
X-500000Y+2750000D01*
X-750000Y+3000000D01*
X-750000Y+3250000D01*
X+500000Y+1484000D02*
X+652400Y+1331600D01*
X+1250000Y+1331600D01*
X+1250000Y+1238000D01*
X+500000Y+1230000D02*
X+754000Y+1230000D01*
X+1000000Y+984000D01*
X+1250000Y+984000D01*
X-1024000Y-2326000D02*
X-1322000Y-2028000D01*
X-1750000Y-2028000D01*
X+500000Y+2246000D02*
X+754000Y+2246000D01*
X+1000000Y+2000000D01*
X+1250000Y+2000000D01*
X-889000Y+127000D02*
X-381000Y+127000D01*
X-190500Y-63500D01*
X-889000Y+127000D02*
X-889000Y+333000D01*
X-1024000Y+468000D01*
X+500000Y-40000D02*
X+127000Y-40000D01*
X+103500Y-63500D01*
X-190500Y-63500D01*
X+2500000Y+1250000D02*
X+2750000Y+1500000D01*
X+2750000Y+3500000D01*
X+2500000Y+3750000D01*
X+2250000Y+3750000D01*
X-2088164Y+3750000D01*
X-2500000Y+3579500D01*
X-2500000Y+2996000D01*
X-2000000Y+2996000D01*
X-889000Y+127000D02*
X-929000Y+87000D01*
X-1599500Y+87000D01*
X-1750000Y-63500D01*
X+2500000Y+1250000D02*
X+2853500Y+896500D01*
X+2853500Y-2540000D01*
X+2726500Y-2667000D01*
X+952500Y-2667000D01*
X+825500Y-2540000D01*
X+825500Y-2095500D01*
X+675000Y-1945000D01*
X-63500Y-1945000D01*
X-190500Y-1818000D01*
X-190500Y-63500D01*
X+500000Y-40000D02*
X+2091500Y-40000D01*
X+2250000Y-198500D01*
X+2250000Y-500000D01*
X-1750000Y-63500D02*
X-1750000Y-250000D01*
X+1250000Y+1746000D02*
X+1000000Y+1746000D01*
X+754000Y+1992000D01*
X+500000Y+1992000D01*
X+1250000Y+1492000D02*
X+1000000Y+1492000D01*
X+754000Y+1738000D01*
X+500000Y+1738000D01*
X+1266000Y+2500000D02*
X+1016000Y+2750000D01*
X+750000Y+2750000D01*
X+500000Y+2500000D01*
D11*
X+500000Y+2500000D03*
X+500000Y+2246000D03*
X+500000Y+1992000D03*
X+500000Y+1738000D03*
X+500000Y+1484000D03*
X+500000Y+1230000D03*
X+500000Y+976000D03*
X+500000Y+722000D03*
X+500000Y+468000D03*
D12*
X+500000Y+214000D03*
X+500000Y-40000D03*
X+500000Y-294000D03*
D11*
X+500000Y-548000D03*
X+500000Y-802000D03*
X+500000Y-1056000D03*
X+500000Y-1310000D03*
X+500000Y-1564000D03*
D12*
X+500000Y-1818000D03*
X+500000Y-2072000D03*
D11*
X+500000Y-2326000D03*
X-1024000Y-2326000D03*
X-1024000Y-2072000D03*
D12*
X-1024000Y-1818000D03*
X-1024000Y-1564000D03*
X-1024000Y-1310000D03*
X-1024000Y-1056000D03*
X-1024000Y-802000D03*
X-1024000Y-548000D03*
X-1024000Y-294000D03*
X-1024000Y-40000D03*
X-1024000Y+214000D03*
X-1024000Y+468000D03*
X-1024000Y+722000D03*
X-1024000Y+976000D03*
X-1024000Y+1230000D03*
X-1024000Y+1484000D03*
X-1024000Y+1738000D03*
X-1024000Y+1992000D03*
X-1024000Y+2246000D03*
X-1024000Y+2500000D03*
D13*
X-1750000Y-250000D03*
X-1750000Y-504000D03*
X-1750000Y-758000D03*
X-1750000Y-1012000D03*
X-1750000Y-1266000D03*
X-1750000Y-1520000D03*
X-1750000Y-1774000D03*
X-1750000Y-2028000D03*
X-1750000Y-2282000D03*
X-1750000Y-2536000D03*
X+1250000Y+2000000D03*
X+1250000Y+1746000D03*
X+1250000Y+1492000D03*
X+1250000Y+1238000D03*
X+1250000Y+984000D03*
X+1250000Y+730000D03*
D14*
X+1877000Y+2250000D03*
X+1877000Y+1234000D03*
X+2500000Y+1250000D03*
X+2500000Y+2266000D03*
X-1250000Y+500000D03*
X-2266000Y+500000D03*
X-1250000Y+1500000D03*
X-2266000Y+1500000D03*
D15*
X-2500000Y+1131000D03*
X-2500000Y+877000D03*
D14*
X-1043500Y+3206500D03*
X-27500Y+3206500D03*
X+1500000Y+3250000D03*
X+738000Y+3250000D03*
X+2282000Y+2500000D03*
X+1266000Y+2500000D03*
D15*
X+1609000Y+2859000D03*
X+1355000Y+2859000D03*
D14*
X+1250000Y-2250000D03*
X+1758000Y-2250000D03*
X+1250000Y-1250000D03*
X+1250000Y-1504000D03*
X+2000000Y-1250000D03*
X+2000000Y-1504000D03*
D13*
X-2000000Y+3250000D03*
X-2000000Y+2996000D03*
X-2000000Y+2742000D03*
X-2000000Y+2488000D03*
X-2000000Y+2234000D03*
X-2000000Y+1980000D03*
D15*
X-3000000Y+1000000D03*
X-3000000Y+1254000D03*
D14*
X-2750000Y+1750000D03*
X-2750000Y+2766000D03*
X+2250000Y+500000D03*
X+1996000Y+500000D03*
X+2250000Y-500000D03*
X+1996000Y-500000D03*
X+2250000Y+3750000D03*
X+2250000Y+2734000D03*
D16*
X-2916180Y-2635700D02*
X-2916180Y-2574740D01*
X-2916180Y-2351220D02*
X-2916180Y-2280100D01*
X-2916180Y-2087060D02*
X-2916180Y-2015940D01*
X-2916180Y-1660340D02*
X-2916180Y-1609540D01*
X-2916180Y-1446980D02*
X-2916180Y-1406340D01*
X-2916180Y-1060900D02*
X-2916180Y-1010100D01*
X-2911100Y-2640780D02*
X-2911100Y-2574740D01*
X-2911100Y-2376620D02*
X-2911100Y-2254700D01*
X-2911100Y-2112460D02*
X-2911100Y-1990540D01*
X-2911100Y-1929580D02*
X-2911100Y-1761940D01*
X-2911100Y-1675580D02*
X-2911100Y-1589220D01*
X-2911100Y-1462220D02*
X-2911100Y-1396180D01*
X-2911100Y-1076140D02*
X-2911100Y-989780D01*
X-2911100Y-928820D02*
X-2911100Y-705300D01*
X-2911100Y-674820D02*
X-2911100Y-507180D01*
X-2911100Y-430980D02*
X-2911100Y-370020D01*
X-2911100Y-232860D02*
X-2911100Y-171900D01*
X-2906020Y-2640780D02*
X-2906020Y-2569660D01*
X-2906020Y-2391860D02*
X-2906020Y-2244540D01*
X-2906020Y-2127700D02*
X-2906020Y-1980380D01*
X-2906020Y-1929580D02*
X-2906020Y-1761940D01*
X-2906020Y-1685740D02*
X-2906020Y-1579060D01*
X-2906020Y-1472380D02*
X-2906020Y-1386020D01*
X-2906020Y-1086300D02*
X-2906020Y-979620D01*
X-2906020Y-928820D02*
X-2906020Y-705300D01*
X-2906020Y-674820D02*
X-2906020Y-507180D01*
X-2906020Y-436060D02*
X-2906020Y-370020D01*
X-2906020Y-232860D02*
X-2906020Y-171900D01*
X-2900940Y-2640780D02*
X-2900940Y-2569660D01*
X-2900940Y-2402020D02*
X-2900940Y-2244540D01*
X-2900940Y-2137860D02*
X-2900940Y-1980380D01*
X-2900940Y-1929580D02*
X-2900940Y-1761940D01*
X-2900940Y-1690820D02*
X-2900940Y-1568900D01*
X-2900940Y-1477460D02*
X-2900940Y-1380940D01*
X-2900940Y-1091380D02*
X-2900940Y-969460D01*
X-2900940Y-928820D02*
X-2900940Y-705300D01*
X-2900940Y-674820D02*
X-2900940Y-507180D01*
X-2900940Y-436060D02*
X-2900940Y-370020D01*
X-2900940Y-237940D02*
X-2900940Y-171900D01*
X-2895860Y-2645860D02*
X-2895860Y-2569660D01*
X-2895860Y-2412180D02*
X-2895860Y-2244540D01*
X-2895860Y-2148020D02*
X-2895860Y-1980380D01*
X-2895860Y-1929580D02*
X-2895860Y-1761940D01*
X-2895860Y-1700980D02*
X-2895860Y-1558740D01*
X-2895860Y-1482540D02*
X-2895860Y-1375860D01*
X-2895860Y-1101540D02*
X-2895860Y-959300D01*
X-2895860Y-928820D02*
X-2895860Y-705300D01*
X-2895860Y-674820D02*
X-2895860Y-507180D01*
X-2895860Y-436060D02*
X-2895860Y-364940D01*
X-2895860Y-237940D02*
X-2895860Y-171900D01*
X-2890780Y-2645860D02*
X-2890780Y-2569660D01*
X-2890780Y-2422340D02*
X-2890780Y-2249620D01*
X-2890780Y-2158180D02*
X-2890780Y-1985460D01*
X-2890780Y-1929580D02*
X-2890780Y-1767020D01*
X-2890780Y-1706060D02*
X-2890780Y-1558740D01*
X-2890780Y-1487620D02*
X-2890780Y-1375860D01*
X-2890780Y-1106620D02*
X-2890780Y-959300D01*
X-2890780Y-928820D02*
X-2890780Y-710380D01*
X-2890780Y-674820D02*
X-2890780Y-512260D01*
X-2890780Y-441140D02*
X-2890780Y-364940D01*
X-2890780Y-243020D02*
X-2890780Y-171900D01*
X-2885700Y-2650940D02*
X-2885700Y-2569660D01*
X-2885700Y-2427420D02*
X-2885700Y-2249620D01*
X-2885700Y-2163260D02*
X-2885700Y-1985460D01*
X-2885700Y-1929580D02*
X-2885700Y-1767020D01*
X-2885700Y-1711140D02*
X-2885700Y-1558740D01*
X-2885700Y-1492700D02*
X-2885700Y-1370780D01*
X-2885700Y-1111700D02*
X-2885700Y-959300D01*
X-2885700Y-933900D02*
X-2885700Y-710380D01*
X-2885700Y-674820D02*
X-2885700Y-512260D01*
X-2885700Y-441140D02*
X-2885700Y-364940D01*
X-2885700Y-243020D02*
X-2885700Y-171900D01*
X-2880620Y-2650940D02*
X-2880620Y-2569660D01*
X-2880620Y-2432500D02*
X-2880620Y-2249620D01*
X-2880620Y-2168340D02*
X-2880620Y-1985460D01*
X-2880620Y-1934660D02*
X-2880620Y-1767020D01*
X-2880620Y-1711140D02*
X-2880620Y-1558740D01*
X-2880620Y-1492700D02*
X-2880620Y-1365700D01*
X-2880620Y-1111700D02*
X-2880620Y-959300D01*
X-2880620Y-933900D02*
X-2880620Y-710380D01*
X-2880620Y-679900D02*
X-2880620Y-512260D01*
X-2880620Y-441140D02*
X-2880620Y-359860D01*
X-2880620Y-248100D02*
X-2880620Y-171900D01*
X-2875540Y-2656020D02*
X-2875540Y-2564580D01*
X-2875540Y-2442660D02*
X-2875540Y-2249620D01*
X-2875540Y-2178500D02*
X-2875540Y-1985460D01*
X-2875540Y-1934660D02*
X-2875540Y-1767020D01*
X-2875540Y-1716220D02*
X-2875540Y-1563820D01*
X-2875540Y-1497780D02*
X-2875540Y-1365700D01*
X-2875540Y-1116780D02*
X-2875540Y-964380D01*
X-2875540Y-933900D02*
X-2875540Y-710380D01*
X-2875540Y-679900D02*
X-2875540Y-512260D01*
X-2875540Y-441140D02*
X-2875540Y-359860D01*
X-2875540Y-253180D02*
X-2875540Y-171900D01*
X-2870460Y-2656020D02*
X-2870460Y-2564580D01*
X-2870460Y-2447740D02*
X-2870460Y-2249620D01*
X-2870460Y-2183580D02*
X-2870460Y-1985460D01*
X-2870460Y-1934660D02*
X-2870460Y-1767020D01*
X-2870460Y-1721300D02*
X-2870460Y-1563820D01*
X-2870460Y-1502860D02*
X-2870460Y-1365700D01*
X-2870460Y-1121860D02*
X-2870460Y-964380D01*
X-2870460Y-933900D02*
X-2870460Y-710380D01*
X-2870460Y-679900D02*
X-2870460Y-512260D01*
X-2870460Y-446220D02*
X-2870460Y-359860D01*
X-2870460Y-253180D02*
X-2870460Y-171900D01*
X-2865380Y-2661100D02*
X-2865380Y-2564580D01*
X-2865380Y-2452820D02*
X-2865380Y-2346140D01*
X-2865380Y-2285180D02*
X-2865380Y-2254700D01*
X-2865380Y-2188660D02*
X-2865380Y-2081980D01*
X-2865380Y-2021020D02*
X-2865380Y-1990540D01*
X-2865380Y-1934660D02*
X-2865380Y-1878780D01*
X-2865380Y-1721300D02*
X-2865380Y-1650180D01*
X-2865380Y-1614620D02*
X-2865380Y-1563820D01*
X-2865380Y-1502860D02*
X-2865380Y-1441900D01*
X-2865380Y-1421580D02*
X-2865380Y-1360620D01*
X-2865380Y-1121860D02*
X-2865380Y-1050740D01*
X-2865380Y-1015180D02*
X-2865380Y-964380D01*
X-2865380Y-852620D02*
X-2865380Y-796740D01*
X-2865380Y-679900D02*
X-2865380Y-624020D01*
X-2865380Y-446220D02*
X-2865380Y-359860D01*
X-2865380Y-258260D02*
X-2865380Y-171900D01*
X-2860300Y-2661100D02*
X-2860300Y-2615380D01*
X-2860300Y-2610300D02*
X-2860300Y-2564580D01*
X-2860300Y-2457900D02*
X-2860300Y-2366460D01*
X-2860300Y-2264860D02*
X-2860300Y-2254700D01*
X-2860300Y-2193740D02*
X-2860300Y-2102300D01*
X-2860300Y-2000700D02*
X-2860300Y-1990540D01*
X-2860300Y-1934660D02*
X-2860300Y-1878780D01*
X-2860300Y-1721300D02*
X-2860300Y-1660340D01*
X-2860300Y-1599380D02*
X-2860300Y-1563820D01*
X-2860300Y-1507940D02*
X-2860300Y-1446980D01*
X-2860300Y-1416500D02*
X-2860300Y-1360620D01*
X-2860300Y-1121860D02*
X-2860300Y-1060900D01*
X-2860300Y-999940D02*
X-2860300Y-964380D01*
X-2860300Y-852620D02*
X-2860300Y-796740D01*
X-2860300Y-679900D02*
X-2860300Y-624020D01*
X-2860300Y-446220D02*
X-2860300Y-354780D01*
X-2860300Y-258260D02*
X-2860300Y-171900D01*
X-2855220Y-2666180D02*
X-2855220Y-2615380D01*
X-2855220Y-2610300D02*
X-2855220Y-2564580D01*
X-2855220Y-2457900D02*
X-2855220Y-2376620D01*
X-2855220Y-2193740D02*
X-2855220Y-2112460D01*
X-2855220Y-1934660D02*
X-2855220Y-1878780D01*
X-2855220Y-1726380D02*
X-2855220Y-1665420D01*
X-2855220Y-1589220D02*
X-2855220Y-1563820D01*
X-2855220Y-1507940D02*
X-2855220Y-1452060D01*
X-2855220Y-1411420D02*
X-2855220Y-1360620D01*
X-2855220Y-1126940D02*
X-2855220Y-1065980D01*
X-2855220Y-989780D02*
X-2855220Y-964380D01*
X-2855220Y-852620D02*
X-2855220Y-796740D01*
X-2855220Y-679900D02*
X-2855220Y-624020D01*
X-2855220Y-451300D02*
X-2855220Y-354780D01*
X-2855220Y-263340D02*
X-2855220Y-171900D01*
X-2850140Y-2666180D02*
X-2850140Y-2620460D01*
X-2850140Y-2610300D02*
X-2850140Y-2564580D01*
X-2850140Y-2462980D02*
X-2850140Y-2386780D01*
X-2850140Y-2198820D02*
X-2850140Y-2122620D01*
X-2850140Y-1934660D02*
X-2850140Y-1878780D01*
X-2850140Y-1726380D02*
X-2850140Y-1670500D01*
X-2850140Y-1579060D02*
X-2850140Y-1563820D01*
X-2850140Y-1513020D02*
X-2850140Y-1457140D01*
X-2850140Y-1406340D02*
X-2850140Y-1360620D01*
X-2850140Y-1126940D02*
X-2850140Y-1071060D01*
X-2850140Y-979620D02*
X-2850140Y-964380D01*
X-2850140Y-852620D02*
X-2850140Y-796740D01*
X-2850140Y-679900D02*
X-2850140Y-624020D01*
X-2850140Y-451300D02*
X-2850140Y-354780D01*
X-2850140Y-263340D02*
X-2850140Y-171900D01*
X-2845060Y-2671260D02*
X-2845060Y-2620460D01*
X-2845060Y-2610300D02*
X-2845060Y-2559500D01*
X-2845060Y-2468060D02*
X-2845060Y-2391860D01*
X-2845060Y-2203900D02*
X-2845060Y-2127700D01*
X-2845060Y-1939740D02*
X-2845060Y-1878780D01*
X-2845060Y-1726380D02*
X-2845060Y-1670500D01*
X-2845060Y-1568900D02*
X-2845060Y-1563820D01*
X-2845060Y-1513020D02*
X-2845060Y-1457140D01*
X-2845060Y-1406340D02*
X-2845060Y-1355540D01*
X-2845060Y-1126940D02*
X-2845060Y-1071060D01*
X-2845060Y-969460D02*
X-2845060Y-964380D01*
X-2845060Y-857700D02*
X-2845060Y-796740D01*
X-2845060Y-684980D02*
X-2845060Y-624020D01*
X-2845060Y-451300D02*
X-2845060Y-349700D01*
X-2845060Y-268420D02*
X-2845060Y-171900D01*
X-2839980Y-2671260D02*
X-2839980Y-2620460D01*
X-2839980Y-2610300D02*
X-2839980Y-2559500D01*
X-2839980Y-2468060D02*
X-2839980Y-2402020D01*
X-2839980Y-2203900D02*
X-2839980Y-2137860D01*
X-2839980Y-1939740D02*
X-2839980Y-1883860D01*
X-2839980Y-1726380D02*
X-2839980Y-1670500D01*
X-2839980Y-1518100D02*
X-2839980Y-1462220D01*
X-2839980Y-1406340D02*
X-2839980Y-1355540D01*
X-2839980Y-1126940D02*
X-2839980Y-1071060D01*
X-2839980Y-857700D02*
X-2839980Y-801820D01*
X-2839980Y-684980D02*
X-2839980Y-629100D01*
X-2839980Y-456380D02*
X-2839980Y-349700D01*
X-2839980Y-268420D02*
X-2839980Y-171900D01*
X-2834900Y-2676340D02*
X-2834900Y-2625540D01*
X-2834900Y-2610300D02*
X-2834900Y-2559500D01*
X-2834900Y-2473140D02*
X-2834900Y-2407100D01*
X-2834900Y-2208980D02*
X-2834900Y-2142940D01*
X-2834900Y-1939740D02*
X-2834900Y-1883860D01*
X-2834900Y-1726380D02*
X-2834900Y-1670500D01*
X-2834900Y-1518100D02*
X-2834900Y-1462220D01*
X-2834900Y-1406340D02*
X-2834900Y-1355540D01*
X-2834900Y-1126940D02*
X-2834900Y-1071060D01*
X-2834900Y-857700D02*
X-2834900Y-801820D01*
X-2834900Y-684980D02*
X-2834900Y-629100D01*
X-2834900Y-456380D02*
X-2834900Y-349700D01*
X-2834900Y-273500D02*
X-2834900Y-171900D01*
X-2829820Y-2676340D02*
X-2829820Y-2625540D01*
X-2829820Y-2610300D02*
X-2829820Y-2559500D01*
X-2829820Y-2473140D02*
X-2829820Y-2407100D01*
X-2829820Y-2208980D02*
X-2829820Y-2142940D01*
X-2829820Y-1939740D02*
X-2829820Y-1883860D01*
X-2829820Y-1726380D02*
X-2829820Y-1665420D01*
X-2829820Y-1518100D02*
X-2829820Y-1467300D01*
X-2829820Y-1406340D02*
X-2829820Y-1355540D01*
X-2829820Y-1126940D02*
X-2829820Y-1065980D01*
X-2829820Y-857700D02*
X-2829820Y-801820D01*
X-2829820Y-684980D02*
X-2829820Y-629100D01*
X-2829820Y-456380D02*
X-2829820Y-400500D01*
X-2829820Y-395420D02*
X-2829820Y-344620D01*
X-2829820Y-273500D02*
X-2829820Y-171900D01*
X-2824740Y-2681420D02*
X-2824740Y-2630620D01*
X-2824740Y-2610300D02*
X-2824740Y-2559500D01*
X-2824740Y-2478220D02*
X-2824740Y-2412180D01*
X-2824740Y-2214060D02*
X-2824740Y-2148020D01*
X-2824740Y-1939740D02*
X-2824740Y-1883860D01*
X-2824740Y-1726380D02*
X-2824740Y-1660340D01*
X-2824740Y-1523180D02*
X-2824740Y-1467300D01*
X-2824740Y-1406340D02*
X-2824740Y-1355540D01*
X-2824740Y-1126940D02*
X-2824740Y-1060900D01*
X-2824740Y-857700D02*
X-2824740Y-801820D01*
X-2824740Y-684980D02*
X-2824740Y-629100D01*
X-2824740Y-456380D02*
X-2824740Y-400500D01*
X-2824740Y-395420D02*
X-2824740Y-344620D01*
X-2824740Y-278580D02*
X-2824740Y-227780D01*
X-2824740Y-222700D02*
X-2824740Y-171900D01*
X-2819660Y-2681420D02*
X-2819660Y-2630620D01*
X-2819660Y-2605220D02*
X-2819660Y-2559500D01*
X-2819660Y-2478220D02*
X-2819660Y-2417260D01*
X-2819660Y-2214060D02*
X-2819660Y-2153100D01*
X-2819660Y-1939740D02*
X-2819660Y-1883860D01*
X-2819660Y-1721300D02*
X-2819660Y-1655260D01*
X-2819660Y-1523180D02*
X-2819660Y-1467300D01*
X-2819660Y-1406340D02*
X-2819660Y-1355540D01*
X-2819660Y-1121860D02*
X-2819660Y-1055820D01*
X-2819660Y-857700D02*
X-2819660Y-801820D01*
X-2819660Y-684980D02*
X-2819660Y-629100D01*
X-2819660Y-461460D02*
X-2819660Y-400500D01*
X-2819660Y-395420D02*
X-2819660Y-344620D01*
X-2819660Y-278580D02*
X-2819660Y-227780D01*
X-2819660Y-222700D02*
X-2819660Y-171900D01*
X-2814580Y-2686500D02*
X-2814580Y-2630620D01*
X-2814580Y-2605220D02*
X-2814580Y-2554420D01*
X-2814580Y-2483300D02*
X-2814580Y-2422340D01*
X-2814580Y-2219140D02*
X-2814580Y-2158180D01*
X-2814580Y-1939740D02*
X-2814580Y-1883860D01*
X-2814580Y-1721300D02*
X-2814580Y-1645100D01*
X-2814580Y-1523180D02*
X-2814580Y-1472380D01*
X-2814580Y-1406340D02*
X-2814580Y-1355540D01*
X-2814580Y-1121860D02*
X-2814580Y-1045660D01*
X-2814580Y-857700D02*
X-2814580Y-801820D01*
X-2814580Y-684980D02*
X-2814580Y-629100D01*
X-2814580Y-461460D02*
X-2814580Y-405580D01*
X-2814580Y-390340D02*
X-2814580Y-344620D01*
X-2814580Y-283660D02*
X-2814580Y-232860D01*
X-2814580Y-222700D02*
X-2814580Y-166820D01*
X-2809500Y-2686500D02*
X-2809500Y-2635700D01*
X-2809500Y-2605220D02*
X-2809500Y-2554420D01*
X-2809500Y-2483300D02*
X-2809500Y-2422340D01*
X-2809500Y-2219140D02*
X-2809500Y-2158180D01*
X-2809500Y-1944820D02*
X-2809500Y-1883860D01*
X-2809500Y-1721300D02*
X-2809500Y-1640020D01*
X-2809500Y-1528260D02*
X-2809500Y-1472380D01*
X-2809500Y-1406340D02*
X-2809500Y-1355540D01*
X-2809500Y-1121860D02*
X-2809500Y-1040580D01*
X-2809500Y-862780D02*
X-2809500Y-801820D01*
X-2809500Y-690060D02*
X-2809500Y-629100D01*
X-2809500Y-461460D02*
X-2809500Y-405580D01*
X-2809500Y-390340D02*
X-2809500Y-339540D01*
X-2809500Y-288740D02*
X-2809500Y-232860D01*
X-2809500Y-222700D02*
X-2809500Y-166820D01*
X-2804420Y-2691580D02*
X-2804420Y-2635700D01*
X-2804420Y-2605220D02*
X-2804420Y-2554420D01*
X-2804420Y-2483300D02*
X-2804420Y-2427420D01*
X-2804420Y-2219140D02*
X-2804420Y-2163260D01*
X-2804420Y-1944820D02*
X-2804420Y-1792420D01*
X-2804420Y-1716220D02*
X-2804420Y-1629860D01*
X-2804420Y-1528260D02*
X-2804420Y-1472380D01*
X-2804420Y-1406340D02*
X-2804420Y-1355540D01*
X-2804420Y-1116780D02*
X-2804420Y-1030420D01*
X-2804420Y-862780D02*
X-2804420Y-806900D01*
X-2804420Y-690060D02*
X-2804420Y-537660D01*
X-2804420Y-466540D02*
X-2804420Y-405580D01*
X-2804420Y-390340D02*
X-2804420Y-339540D01*
X-2804420Y-288740D02*
X-2804420Y-237940D01*
X-2804420Y-222700D02*
X-2804420Y-166820D01*
X-2799340Y-2691580D02*
X-2799340Y-2640780D01*
X-2799340Y-2605220D02*
X-2799340Y-2554420D01*
X-2799340Y-2483300D02*
X-2799340Y-2427420D01*
X-2799340Y-2219140D02*
X-2799340Y-2163260D01*
X-2799340Y-1944820D02*
X-2799340Y-1792420D01*
X-2799340Y-1716220D02*
X-2799340Y-1619700D01*
X-2799340Y-1528260D02*
X-2799340Y-1472380D01*
X-2799340Y-1411420D02*
X-2799340Y-1355540D01*
X-2799340Y-1116780D02*
X-2799340Y-1020260D01*
X-2799340Y-862780D02*
X-2799340Y-806900D01*
X-2799340Y-690060D02*
X-2799340Y-537660D01*
X-2799340Y-466540D02*
X-2799340Y-410660D01*
X-2799340Y-385260D02*
X-2799340Y-339540D01*
X-2799340Y-293820D02*
X-2799340Y-243020D01*
X-2799340Y-222700D02*
X-2799340Y-166820D01*
X-2794260Y-2691580D02*
X-2794260Y-2640780D01*
X-2794260Y-2605220D02*
X-2794260Y-2554420D01*
X-2794260Y-2488380D02*
X-2794260Y-2427420D01*
X-2794260Y-2224220D02*
X-2794260Y-2163260D01*
X-2794260Y-1944820D02*
X-2794260Y-1792420D01*
X-2794260Y-1711140D02*
X-2794260Y-1614620D01*
X-2794260Y-1528260D02*
X-2794260Y-1477460D01*
X-2794260Y-1411420D02*
X-2794260Y-1355540D01*
X-2794260Y-1111700D02*
X-2794260Y-1015180D01*
X-2794260Y-862780D02*
X-2794260Y-806900D01*
X-2794260Y-690060D02*
X-2794260Y-537660D01*
X-2794260Y-466540D02*
X-2794260Y-410660D01*
X-2794260Y-385260D02*
X-2794260Y-334460D01*
X-2794260Y-293820D02*
X-2794260Y-243020D01*
X-2794260Y-222700D02*
X-2794260Y-166820D01*
X-2789180Y-2696660D02*
X-2789180Y-2645860D01*
X-2789180Y-2605220D02*
X-2789180Y-2554420D01*
X-2789180Y-2488380D02*
X-2789180Y-2427420D01*
X-2789180Y-2224220D02*
X-2789180Y-2163260D01*
X-2789180Y-1944820D02*
X-2789180Y-1792420D01*
X-2789180Y-1706060D02*
X-2789180Y-1604460D01*
X-2789180Y-1528260D02*
X-2789180Y-1477460D01*
X-2789180Y-1411420D02*
X-2789180Y-1355540D01*
X-2789180Y-1106620D02*
X-2789180Y-1005020D01*
X-2789180Y-862780D02*
X-2789180Y-806900D01*
X-2789180Y-690060D02*
X-2789180Y-537660D01*
X-2789180Y-471620D02*
X-2789180Y-410660D01*
X-2789180Y-385260D02*
X-2789180Y-334460D01*
X-2789180Y-298900D02*
X-2789180Y-248100D01*
X-2789180Y-222700D02*
X-2789180Y-166820D01*
X-2784100Y-2696660D02*
X-2784100Y-2645860D01*
X-2784100Y-2605220D02*
X-2784100Y-2549340D01*
X-2784100Y-2488380D02*
X-2784100Y-2432500D01*
X-2784100Y-2224220D02*
X-2784100Y-2168340D01*
X-2784100Y-1944820D02*
X-2784100Y-1797500D01*
X-2784100Y-1700980D02*
X-2784100Y-1599380D01*
X-2784100Y-1528260D02*
X-2784100Y-1477460D01*
X-2784100Y-1411420D02*
X-2784100Y-1355540D01*
X-2784100Y-1101540D02*
X-2784100Y-999940D01*
X-2784100Y-862780D02*
X-2784100Y-806900D01*
X-2784100Y-690060D02*
X-2784100Y-542740D01*
X-2784100Y-471620D02*
X-2784100Y-410660D01*
X-2784100Y-385260D02*
X-2784100Y-334460D01*
X-2784100Y-298900D02*
X-2784100Y-248100D01*
X-2784100Y-222700D02*
X-2784100Y-166820D01*
X-2779020Y-2701740D02*
X-2779020Y-2645860D01*
X-2779020Y-2600140D02*
X-2779020Y-2549340D01*
X-2779020Y-2488380D02*
X-2779020Y-2432500D01*
X-2779020Y-2224220D02*
X-2779020Y-2168340D01*
X-2779020Y-1944820D02*
X-2779020Y-1797500D01*
X-2779020Y-1690820D02*
X-2779020Y-1594300D01*
X-2779020Y-1533340D02*
X-2779020Y-1477460D01*
X-2779020Y-1411420D02*
X-2779020Y-1360620D01*
X-2779020Y-1091380D02*
X-2779020Y-994860D01*
X-2779020Y-862780D02*
X-2779020Y-806900D01*
X-2779020Y-690060D02*
X-2779020Y-542740D01*
X-2779020Y-471620D02*
X-2779020Y-415740D01*
X-2779020Y-380180D02*
X-2779020Y-329380D01*
X-2779020Y-303980D02*
X-2779020Y-253180D01*
X-2779020Y-222700D02*
X-2779020Y-166820D01*
X-2773940Y-2701740D02*
X-2773940Y-2650940D01*
X-2773940Y-2600140D02*
X-2773940Y-2549340D01*
X-2773940Y-2488380D02*
X-2773940Y-2432500D01*
X-2773940Y-2224220D02*
X-2773940Y-2168340D01*
X-2773940Y-1949900D02*
X-2773940Y-1797500D01*
X-2773940Y-1685740D02*
X-2773940Y-1589220D01*
X-2773940Y-1533340D02*
X-2773940Y-1477460D01*
X-2773940Y-1411420D02*
X-2773940Y-1360620D01*
X-2773940Y-1086300D02*
X-2773940Y-989780D01*
X-2773940Y-867860D02*
X-2773940Y-806900D01*
X-2773940Y-695140D02*
X-2773940Y-542740D01*
X-2773940Y-476700D02*
X-2773940Y-415740D01*
X-2773940Y-380180D02*
X-2773940Y-329380D01*
X-2773940Y-303980D02*
X-2773940Y-253180D01*
X-2773940Y-222700D02*
X-2773940Y-166820D01*
X-2768860Y-2706820D02*
X-2768860Y-2650940D01*
X-2768860Y-2600140D02*
X-2768860Y-2549340D01*
X-2768860Y-2488380D02*
X-2768860Y-2432500D01*
X-2768860Y-2224220D02*
X-2768860Y-2168340D01*
X-2768860Y-1949900D02*
X-2768860Y-1797500D01*
X-2768860Y-1675580D02*
X-2768860Y-1589220D01*
X-2768860Y-1533340D02*
X-2768860Y-1482540D01*
X-2768860Y-1416500D02*
X-2768860Y-1360620D01*
X-2768860Y-1076140D02*
X-2768860Y-989780D01*
X-2768860Y-867860D02*
X-2768860Y-811980D01*
X-2768860Y-695140D02*
X-2768860Y-542740D01*
X-2768860Y-476700D02*
X-2768860Y-415740D01*
X-2768860Y-380180D02*
X-2768860Y-329380D01*
X-2768860Y-309060D02*
X-2768860Y-258260D01*
X-2768860Y-222700D02*
X-2768860Y-166820D01*
X-2763780Y-2706820D02*
X-2763780Y-2656020D01*
X-2763780Y-2600140D02*
X-2763780Y-2549340D01*
X-2763780Y-2488380D02*
X-2763780Y-2432500D01*
X-2763780Y-2224220D02*
X-2763780Y-2168340D01*
X-2763780Y-1949900D02*
X-2763780Y-1797500D01*
X-2763780Y-1670500D02*
X-2763780Y-1584140D01*
X-2763780Y-1533340D02*
X-2763780Y-1482540D01*
X-2763780Y-1416500D02*
X-2763780Y-1360620D01*
X-2763780Y-1071060D02*
X-2763780Y-984700D01*
X-2763780Y-867860D02*
X-2763780Y-811980D01*
X-2763780Y-695140D02*
X-2763780Y-542740D01*
X-2763780Y-476700D02*
X-2763780Y-420820D01*
X-2763780Y-375100D02*
X-2763780Y-324300D01*
X-2763780Y-309060D02*
X-2763780Y-258260D01*
X-2763780Y-222700D02*
X-2763780Y-166820D01*
X-2758700Y-2711900D02*
X-2758700Y-2656020D01*
X-2758700Y-2600140D02*
X-2758700Y-2549340D01*
X-2758700Y-2488380D02*
X-2758700Y-2432500D01*
X-2758700Y-2224220D02*
X-2758700Y-2168340D01*
X-2758700Y-1949900D02*
X-2758700Y-1894020D01*
X-2758700Y-1660340D02*
X-2758700Y-1579060D01*
X-2758700Y-1533340D02*
X-2758700Y-1482540D01*
X-2758700Y-1416500D02*
X-2758700Y-1360620D01*
X-2758700Y-1060900D02*
X-2758700Y-979620D01*
X-2758700Y-867860D02*
X-2758700Y-811980D01*
X-2758700Y-695140D02*
X-2758700Y-639260D01*
X-2758700Y-476700D02*
X-2758700Y-420820D01*
X-2758700Y-375100D02*
X-2758700Y-324300D01*
X-2758700Y-314140D02*
X-2758700Y-263340D01*
X-2758700Y-222700D02*
X-2758700Y-166820D01*
X-2753620Y-2711900D02*
X-2753620Y-2656020D01*
X-2753620Y-2600140D02*
X-2753620Y-2544260D01*
X-2753620Y-2488380D02*
X-2753620Y-2432500D01*
X-2753620Y-2224220D02*
X-2753620Y-2168340D01*
X-2753620Y-1949900D02*
X-2753620Y-1894020D01*
X-2753620Y-1655260D02*
X-2753620Y-1579060D01*
X-2753620Y-1533340D02*
X-2753620Y-1482540D01*
X-2753620Y-1416500D02*
X-2753620Y-1365700D01*
X-2753620Y-1055820D02*
X-2753620Y-979620D01*
X-2753620Y-867860D02*
X-2753620Y-811980D01*
X-2753620Y-695140D02*
X-2753620Y-639260D01*
X-2753620Y-481780D02*
X-2753620Y-420820D01*
X-2753620Y-375100D02*
X-2753620Y-324300D01*
X-2753620Y-314140D02*
X-2753620Y-263340D01*
X-2753620Y-222700D02*
X-2753620Y-166820D01*
X-2748540Y-2716980D02*
X-2748540Y-2661100D01*
X-2748540Y-2600140D02*
X-2748540Y-2544260D01*
X-2748540Y-2488380D02*
X-2748540Y-2432500D01*
X-2748540Y-2224220D02*
X-2748540Y-2168340D01*
X-2748540Y-1949900D02*
X-2748540Y-1894020D01*
X-2748540Y-1645100D02*
X-2748540Y-1579060D01*
X-2748540Y-1533340D02*
X-2748540Y-1482540D01*
X-2748540Y-1421580D02*
X-2748540Y-1365700D01*
X-2748540Y-1045660D02*
X-2748540Y-979620D01*
X-2748540Y-867860D02*
X-2748540Y-811980D01*
X-2748540Y-695140D02*
X-2748540Y-639260D01*
X-2748540Y-481780D02*
X-2748540Y-425900D01*
X-2748540Y-370020D02*
X-2748540Y-324300D01*
X-2748540Y-319220D02*
X-2748540Y-268420D01*
X-2748540Y-222700D02*
X-2748540Y-166820D01*
X-2743460Y-2716980D02*
X-2743460Y-2544260D01*
X-2743460Y-2488380D02*
X-2743460Y-2427420D01*
X-2743460Y-2224220D02*
X-2743460Y-2163260D01*
X-2743460Y-1949900D02*
X-2743460Y-1894020D01*
X-2743460Y-1640020D02*
X-2743460Y-1573980D01*
X-2743460Y-1533340D02*
X-2743460Y-1482540D01*
X-2743460Y-1421580D02*
X-2743460Y-1365700D01*
X-2743460Y-1040580D02*
X-2743460Y-974540D01*
X-2743460Y-867860D02*
X-2743460Y-811980D01*
X-2743460Y-695140D02*
X-2743460Y-639260D01*
X-2743460Y-481780D02*
X-2743460Y-425900D01*
X-2743460Y-370020D02*
X-2743460Y-268420D01*
X-2743460Y-222700D02*
X-2743460Y-166820D01*
X-2738380Y-2722060D02*
X-2738380Y-2544260D01*
X-2738380Y-2483300D02*
X-2738380Y-2427420D01*
X-2738380Y-2219140D02*
X-2738380Y-2163260D01*
X-2738380Y-1954980D02*
X-2738380Y-1894020D01*
X-2738380Y-1634940D02*
X-2738380Y-1573980D01*
X-2738380Y-1533340D02*
X-2738380Y-1482540D01*
X-2738380Y-1421580D02*
X-2738380Y-1365700D01*
X-2738380Y-1035500D02*
X-2738380Y-974540D01*
X-2738380Y-872940D02*
X-2738380Y-811980D01*
X-2738380Y-700220D02*
X-2738380Y-639260D01*
X-2738380Y-486860D02*
X-2738380Y-425900D01*
X-2738380Y-370020D02*
X-2738380Y-273500D01*
X-2738380Y-222700D02*
X-2738380Y-166820D01*
X-2733300Y-2722060D02*
X-2733300Y-2544260D01*
X-2733300Y-2483300D02*
X-2733300Y-2427420D01*
X-2733300Y-2219140D02*
X-2733300Y-2163260D01*
X-2733300Y-1954980D02*
X-2733300Y-1899100D01*
X-2733300Y-1634940D02*
X-2733300Y-1573980D01*
X-2733300Y-1533340D02*
X-2733300Y-1482540D01*
X-2733300Y-1426660D02*
X-2733300Y-1370780D01*
X-2733300Y-1035500D02*
X-2733300Y-974540D01*
X-2733300Y-872940D02*
X-2733300Y-817060D01*
X-2733300Y-700220D02*
X-2733300Y-644340D01*
X-2733300Y-486860D02*
X-2733300Y-425900D01*
X-2733300Y-370020D02*
X-2733300Y-278580D01*
X-2733300Y-222700D02*
X-2733300Y-166820D01*
X-2728220Y-2727140D02*
X-2728220Y-2544260D01*
X-2728220Y-2483300D02*
X-2728220Y-2422340D01*
X-2728220Y-2219140D02*
X-2728220Y-2158180D01*
X-2728220Y-1954980D02*
X-2728220Y-1899100D01*
X-2728220Y-1629860D02*
X-2728220Y-1573980D01*
X-2728220Y-1533340D02*
X-2728220Y-1482540D01*
X-2728220Y-1426660D02*
X-2728220Y-1370780D01*
X-2728220Y-1030420D02*
X-2728220Y-974540D01*
X-2728220Y-872940D02*
X-2728220Y-817060D01*
X-2728220Y-700220D02*
X-2728220Y-644340D01*
X-2728220Y-486860D02*
X-2728220Y-430980D01*
X-2728220Y-364940D02*
X-2728220Y-278580D01*
X-2728220Y-222700D02*
X-2728220Y-166820D01*
X-2723140Y-2727140D02*
X-2723140Y-2539180D01*
X-2723140Y-2483300D02*
X-2723140Y-2422340D01*
X-2723140Y-2264860D02*
X-2723140Y-2259780D01*
X-2723140Y-2219140D02*
X-2723140Y-2158180D01*
X-2723140Y-2000700D02*
X-2723140Y-1995620D01*
X-2723140Y-1954980D02*
X-2723140Y-1899100D01*
X-2723140Y-1629860D02*
X-2723140Y-1573980D01*
X-2723140Y-1533340D02*
X-2723140Y-1482540D01*
X-2723140Y-1426660D02*
X-2723140Y-1375860D01*
X-2723140Y-1030420D02*
X-2723140Y-974540D01*
X-2723140Y-872940D02*
X-2723140Y-817060D01*
X-2723140Y-700220D02*
X-2723140Y-644340D01*
X-2723140Y-491940D02*
X-2723140Y-430980D01*
X-2723140Y-364940D02*
X-2723140Y-283660D01*
X-2723140Y-222700D02*
X-2723140Y-166820D01*
X-2718060Y-2732220D02*
X-2718060Y-2539180D01*
X-2718060Y-2478220D02*
X-2718060Y-2417260D01*
X-2718060Y-2275020D02*
X-2718060Y-2259780D01*
X-2718060Y-2214060D02*
X-2718060Y-2153100D01*
X-2718060Y-2010860D02*
X-2718060Y-1995620D01*
X-2718060Y-1954980D02*
X-2718060Y-1899100D01*
X-2718060Y-1741620D02*
X-2718060Y-1736540D01*
X-2718060Y-1629860D02*
X-2718060Y-1573980D01*
X-2718060Y-1533340D02*
X-2718060Y-1482540D01*
X-2718060Y-1431740D02*
X-2718060Y-1375860D01*
X-2718060Y-1142180D02*
X-2718060Y-1137100D01*
X-2718060Y-1030420D02*
X-2718060Y-974540D01*
X-2718060Y-872940D02*
X-2718060Y-817060D01*
X-2718060Y-700220D02*
X-2718060Y-644340D01*
X-2718060Y-491940D02*
X-2718060Y-430980D01*
X-2718060Y-364940D02*
X-2718060Y-283660D01*
X-2718060Y-222700D02*
X-2718060Y-166820D01*
X-2712980Y-2732220D02*
X-2712980Y-2539180D01*
X-2712980Y-2478220D02*
X-2712980Y-2412180D01*
X-2712980Y-2285180D02*
X-2712980Y-2259780D01*
X-2712980Y-2214060D02*
X-2712980Y-2148020D01*
X-2712980Y-2021020D02*
X-2712980Y-1995620D01*
X-2712980Y-1954980D02*
X-2712980Y-1899100D01*
X-2712980Y-1746700D02*
X-2712980Y-1731460D01*
X-2712980Y-1629860D02*
X-2712980Y-1573980D01*
X-2712980Y-1528260D02*
X-2712980Y-1482540D01*
X-2712980Y-1431740D02*
X-2712980Y-1375860D01*
X-2712980Y-1147260D02*
X-2712980Y-1132020D01*
X-2712980Y-1030420D02*
X-2712980Y-974540D01*
X-2712980Y-872940D02*
X-2712980Y-817060D01*
X-2712980Y-700220D02*
X-2712980Y-644340D01*
X-2712980Y-491940D02*
X-2712980Y-436060D01*
X-2712980Y-359860D02*
X-2712980Y-288740D01*
X-2712980Y-217620D02*
X-2712980Y-166820D01*
X-2707900Y-2737300D02*
X-2707900Y-2539180D01*
X-2707900Y-2473140D02*
X-2707900Y-2402020D01*
X-2707900Y-2295340D02*
X-2707900Y-2259780D01*
X-2707900Y-2208980D02*
X-2707900Y-2137860D01*
X-2707900Y-2031180D02*
X-2707900Y-1995620D01*
X-2707900Y-1954980D02*
X-2707900Y-1899100D01*
X-2707900Y-1746700D02*
X-2707900Y-1721300D01*
X-2707900Y-1634940D02*
X-2707900Y-1573980D01*
X-2707900Y-1528260D02*
X-2707900Y-1477460D01*
X-2707900Y-1436820D02*
X-2707900Y-1380940D01*
X-2707900Y-1147260D02*
X-2707900Y-1121860D01*
X-2707900Y-1035500D02*
X-2707900Y-974540D01*
X-2707900Y-872940D02*
X-2707900Y-817060D01*
X-2707900Y-700220D02*
X-2707900Y-644340D01*
X-2707900Y-491940D02*
X-2707900Y-436060D01*
X-2707900Y-359860D02*
X-2707900Y-288740D01*
X-2707900Y-217620D02*
X-2707900Y-166820D01*
X-2702820Y-2737300D02*
X-2702820Y-2539180D01*
X-2702820Y-2473140D02*
X-2702820Y-2396940D01*
X-2702820Y-2310580D02*
X-2702820Y-2264860D01*
X-2702820Y-2208980D02*
X-2702820Y-2132780D01*
X-2702820Y-2046420D02*
X-2702820Y-2000700D01*
X-2702820Y-1960060D02*
X-2702820Y-1899100D01*
X-2702820Y-1746700D02*
X-2702820Y-1706060D01*
X-2702820Y-1640020D02*
X-2702820Y-1579060D01*
X-2702820Y-1528260D02*
X-2702820Y-1477460D01*
X-2702820Y-1441900D02*
X-2702820Y-1380940D01*
X-2702820Y-1147260D02*
X-2702820Y-1106620D01*
X-2702820Y-1040580D02*
X-2702820Y-979620D01*
X-2702820Y-878020D02*
X-2702820Y-817060D01*
X-2702820Y-705300D02*
X-2702820Y-644340D01*
X-2702820Y-497020D02*
X-2702820Y-436060D01*
X-2702820Y-359860D02*
X-2702820Y-293820D01*
X-2702820Y-217620D02*
X-2702820Y-161740D01*
X-2697740Y-2737300D02*
X-2697740Y-2681420D01*
X-2697740Y-2589980D02*
X-2697740Y-2539180D01*
X-2697740Y-2468060D02*
X-2697740Y-2381700D01*
X-2697740Y-2330900D02*
X-2697740Y-2264860D01*
X-2697740Y-2203900D02*
X-2697740Y-2117540D01*
X-2697740Y-2066740D02*
X-2697740Y-2000700D01*
X-2697740Y-1960060D02*
X-2697740Y-1904180D01*
X-2697740Y-1746700D02*
X-2697740Y-1690820D01*
X-2697740Y-1650180D02*
X-2697740Y-1579060D01*
X-2697740Y-1528260D02*
X-2697740Y-1467300D01*
X-2697740Y-1446980D02*
X-2697740Y-1386020D01*
X-2697740Y-1147260D02*
X-2697740Y-1091380D01*
X-2697740Y-1050740D02*
X-2697740Y-979620D01*
X-2697740Y-878020D02*
X-2697740Y-822140D01*
X-2697740Y-705300D02*
X-2697740Y-649420D01*
X-2697740Y-497020D02*
X-2697740Y-441140D01*
X-2697740Y-354780D02*
X-2697740Y-293820D01*
X-2697740Y-217620D02*
X-2697740Y-161740D01*
X-2692660Y-2742380D02*
X-2692660Y-2681420D01*
X-2692660Y-2589980D02*
X-2692660Y-2534100D01*
X-2692660Y-2468060D02*
X-2692660Y-2264860D01*
X-2692660Y-2203900D02*
X-2692660Y-2000700D01*
X-2692660Y-1960060D02*
X-2692660Y-1767020D01*
X-2692660Y-1746700D02*
X-2692660Y-1579060D01*
X-2692660Y-1523180D02*
X-2692660Y-1386020D01*
X-2692660Y-1147260D02*
X-2692660Y-979620D01*
X-2692660Y-878020D02*
X-2692660Y-822140D01*
X-2692660Y-705300D02*
X-2692660Y-512260D01*
X-2692660Y-497020D02*
X-2692660Y-441140D01*
X-2692660Y-354780D02*
X-2692660Y-298900D01*
X-2692660Y-217620D02*
X-2692660Y-161740D01*
X-2687580Y-2742380D02*
X-2687580Y-2686500D01*
X-2687580Y-2589980D02*
X-2687580Y-2534100D01*
X-2687580Y-2462980D02*
X-2687580Y-2264860D01*
X-2687580Y-2198820D02*
X-2687580Y-2000700D01*
X-2687580Y-1960060D02*
X-2687580Y-1767020D01*
X-2687580Y-1746700D02*
X-2687580Y-1584140D01*
X-2687580Y-1523180D02*
X-2687580Y-1391100D01*
X-2687580Y-1147260D02*
X-2687580Y-984700D01*
X-2687580Y-878020D02*
X-2687580Y-822140D01*
X-2687580Y-705300D02*
X-2687580Y-512260D01*
X-2687580Y-502100D02*
X-2687580Y-441140D01*
X-2687580Y-354780D02*
X-2687580Y-298900D01*
X-2687580Y-217620D02*
X-2687580Y-161740D01*
X-2682500Y-2747460D02*
X-2682500Y-2686500D01*
X-2682500Y-2589980D02*
X-2682500Y-2534100D01*
X-2682500Y-2457900D02*
X-2682500Y-2264860D01*
X-2682500Y-2193740D02*
X-2682500Y-2000700D01*
X-2682500Y-1960060D02*
X-2682500Y-1767020D01*
X-2682500Y-1751780D02*
X-2682500Y-1584140D01*
X-2682500Y-1523180D02*
X-2682500Y-1396180D01*
X-2682500Y-1152340D02*
X-2682500Y-984700D01*
X-2682500Y-878020D02*
X-2682500Y-822140D01*
X-2682500Y-705300D02*
X-2682500Y-512260D01*
X-2682500Y-502100D02*
X-2682500Y-446220D01*
X-2682500Y-354780D02*
X-2682500Y-303980D01*
X-2682500Y-217620D02*
X-2682500Y-161740D01*
X-2677420Y-2747460D02*
X-2677420Y-2691580D01*
X-2677420Y-2589980D02*
X-2677420Y-2534100D01*
X-2677420Y-2452820D02*
X-2677420Y-2264860D01*
X-2677420Y-2188660D02*
X-2677420Y-2000700D01*
X-2677420Y-1960060D02*
X-2677420Y-1767020D01*
X-2677420Y-1751780D02*
X-2677420Y-1589220D01*
X-2677420Y-1518100D02*
X-2677420Y-1396180D01*
X-2677420Y-1152340D02*
X-2677420Y-989780D01*
X-2677420Y-878020D02*
X-2677420Y-822140D01*
X-2677420Y-705300D02*
X-2677420Y-512260D01*
X-2677420Y-502100D02*
X-2677420Y-446220D01*
X-2677420Y-349700D02*
X-2677420Y-309060D01*
X-2677420Y-217620D02*
X-2677420Y-161740D01*
X-2672340Y-2752540D02*
X-2672340Y-2691580D01*
X-2672340Y-2589980D02*
X-2672340Y-2534100D01*
X-2672340Y-2447740D02*
X-2672340Y-2264860D01*
X-2672340Y-2183580D02*
X-2672340Y-2000700D01*
X-2672340Y-1960060D02*
X-2672340Y-1772100D01*
X-2672340Y-1751780D02*
X-2672340Y-1594300D01*
X-2672340Y-1513020D02*
X-2672340Y-1401260D01*
X-2672340Y-1152340D02*
X-2672340Y-994860D01*
X-2672340Y-878020D02*
X-2672340Y-822140D01*
X-2672340Y-705300D02*
X-2672340Y-517340D01*
X-2672340Y-507180D02*
X-2672340Y-446220D01*
X-2672340Y-349700D02*
X-2672340Y-309060D01*
X-2672340Y-217620D02*
X-2672340Y-161740D01*
X-2667260Y-2752540D02*
X-2667260Y-2691580D01*
X-2667260Y-2589980D02*
X-2667260Y-2534100D01*
X-2667260Y-2437580D02*
X-2667260Y-2269940D01*
X-2667260Y-2173420D02*
X-2667260Y-2005780D01*
X-2667260Y-1965140D02*
X-2667260Y-1772100D01*
X-2667260Y-1746700D02*
X-2667260Y-1599380D01*
X-2667260Y-1513020D02*
X-2667260Y-1406340D01*
X-2667260Y-1147260D02*
X-2667260Y-999940D01*
X-2667260Y-883100D02*
X-2667260Y-822140D01*
X-2667260Y-710380D02*
X-2667260Y-517340D01*
X-2667260Y-507180D02*
X-2667260Y-446220D01*
X-2667260Y-349700D02*
X-2667260Y-314140D01*
X-2667260Y-217620D02*
X-2667260Y-161740D01*
X-2662180Y-2757620D02*
X-2662180Y-2696660D01*
X-2662180Y-2584900D02*
X-2662180Y-2529020D01*
X-2662180Y-2432500D02*
X-2662180Y-2275020D01*
X-2662180Y-2168340D02*
X-2662180Y-2010860D01*
X-2662180Y-1965140D02*
X-2662180Y-1772100D01*
X-2662180Y-1736540D02*
X-2662180Y-1604460D01*
X-2662180Y-1507940D02*
X-2662180Y-1411420D01*
X-2662180Y-1137100D02*
X-2662180Y-1005020D01*
X-2662180Y-883100D02*
X-2662180Y-827220D01*
X-2662180Y-710380D02*
X-2662180Y-517340D01*
X-2662180Y-507180D02*
X-2662180Y-451300D01*
X-2662180Y-344620D02*
X-2662180Y-314140D01*
X-2662180Y-217620D02*
X-2662180Y-161740D01*
X-2657100Y-2757620D02*
X-2657100Y-2696660D01*
X-2657100Y-2584900D02*
X-2657100Y-2529020D01*
X-2657100Y-2422340D02*
X-2657100Y-2290260D01*
X-2657100Y-2158180D02*
X-2657100Y-2026100D01*
X-2657100Y-1965140D02*
X-2657100Y-1772100D01*
X-2657100Y-1726380D02*
X-2657100Y-1609540D01*
X-2657100Y-1502860D02*
X-2657100Y-1421580D01*
X-2657100Y-1126940D02*
X-2657100Y-1010100D01*
X-2657100Y-883100D02*
X-2657100Y-827220D01*
X-2657100Y-710380D02*
X-2657100Y-517340D01*
X-2657100Y-512260D02*
X-2657100Y-451300D01*
X-2657100Y-344620D02*
X-2657100Y-319220D01*
X-2657100Y-217620D02*
X-2657100Y-161740D01*
X-2652020Y-2762700D02*
X-2652020Y-2701740D01*
X-2652020Y-2584900D02*
X-2652020Y-2529020D01*
X-2652020Y-2407100D02*
X-2652020Y-2305500D01*
X-2652020Y-2142940D02*
X-2652020Y-2041340D01*
X-2652020Y-1965140D02*
X-2652020Y-1772100D01*
X-2652020Y-1711140D02*
X-2652020Y-1619700D01*
X-2652020Y-1492700D02*
X-2652020Y-1426660D01*
X-2652020Y-1111700D02*
X-2652020Y-1020260D01*
X-2652020Y-883100D02*
X-2652020Y-827220D01*
X-2652020Y-710380D02*
X-2652020Y-517340D01*
X-2652020Y-512260D02*
X-2652020Y-451300D01*
X-2652020Y-344620D02*
X-2652020Y-319220D01*
X-2652020Y-217620D02*
X-2652020Y-161740D01*
X-2646940Y-2391860D02*
X-2646940Y-2330900D01*
X-2646940Y-2127700D02*
X-2646940Y-2066740D01*
X-2646940Y-1690820D02*
X-2646940Y-1640020D01*
X-2646940Y-1482540D02*
X-2646940Y-1441900D01*
X-2646940Y-1091380D02*
X-2646940Y-1040580D01*
X-2616460Y-1350460D02*
X-2616460Y-1157420D01*
X-2611380Y-1350460D02*
X-2611380Y-1157420D01*
X-2606300Y-1350460D02*
X-2606300Y-1157420D01*
X-2601220Y-1350460D02*
X-2601220Y-1157420D01*
M02*
